<?xml version="1.0" standalone="no"?>
<!DOCTYPE svg PUBLIC "-//W3C//DTD SVG 1.1//EN" "http://www.w3.org/Graphics/SVG/1.1/DTD/svg11.dtd">
<svg xmlns="http://www.w3.org/2000/svg">
<metadata>Generated by Fontastic.me</metadata>
<defs>
<font id="fntlmsiconset" horiz-adv-x="512">
<font-face font-family="fntlmsiconset" units-per-em="512" ascent="480" descent="-32"/>
<missing-glyph horiz-adv-x="512" />

<glyph glyph-name="dashboard-1" unicode="&#97;" d="M437 437c50-50 75-110 75-181 0-71-25-131-75-181-50-50-110-75-181-75-71 0-131 25-181 75-50 50-75 110-75 181 0 5 2 9 5 12 3 3 7 5 12 5 5 0 9-2 12-5 3-3 5-7 5-12 0-61 22-113 65-157 44-43 96-65 157-65 61 0 113 22 156 65 44 44 66 96 66 157 0 61-22 113-66 157-43 43-95 65-156 65-5 0-9 2-12 5-3 3-5 7-5 12 0 5 2 9 5 12 3 3 7 5 12 5 71 0 131-25 181-75z m-242-181c0 11 3 20 8 30l-108 107c-9 8-9 16 0 25 7 7 15 7 24 0l108-108c9 5 18 8 29 8 17 0 31-6 43-18 12-12 18-27 18-44 0-17-6-32-18-44-12-12-26-18-43-18-17 0-31 6-43 18-12 12-18 27-18 44z m61 27c-7 0-14-3-19-8-5-6-8-12-8-19 0-7 3-14 8-19 5-5 12-8 19-8 7 0 14 3 19 8 5 5 8 12 8 19 0 7-3 13-8 19-5 5-12 8-19 8z"/>
<glyph glyph-name="dashboard-2" unicode="&#98;" d="M512 211c0 136-113 249-256 249-120 0-240-80-256-235l0-29c0-32 21-95 39-120 10-12 14-24 28-24 8 0 20 7 20 20 0 13-48 57-48 139 0 115 95 211 217 211 99 0 206-69 217-198l0-27c-2-13-4-26-7-38-3-17-11-34-20-50-5-9-21-27-21-37 0-10 9-20 20-20 13 0 17 11 27 24 28 43 40 93 40 135z m-123 103c0 10-8 19-20 19-5 0-7 2-13-4-24-20-65-65-67-65-3 0-7 3-9 4-8 2-21 4-24 4-38 0-70-29-70-67 0-37 29-69 70-69 37 0 70 29 70 69 0 6-3 20-6 25-1 2-2 4-2 6 0 3 45 44 66 65 2 4 5 11 5 13z m-103-109c0-18-15-30-30-30-19 0-30 14-30 30 0 17 14 28 30 28 18 0 30-14 30-28z"/>
<glyph glyph-name="cart-1" unicode="&#99;" d="M204 72c0 22 18 40 40 40 22 0 40-18 40-40 0-22-18-40-40-40-22 0-40 18-40 40z m-32 0c0-40 32-72 72-72 40 0 72 32 72 72 0 39-32 71-72 71-40 0-72-32-72-71z m202 0c0 22 18 40 40 40 22 0 40-18 40-40 0-22-18-40-40-40-22 0-40 18-40 40z m-32 0c0-40 32-72 72-72 40 0 72 32 72 72 0 39-32 71-72 71-40 0-72-32-72-71z m-342 418c0-4 6-20 16-20l66 0c37-94 74-188 113-282 2-4 6-8 12-8l246 0c20 8 16 32 20 43 14 61 39 184 39 188 0 6 0 20-12 20l-244 0c-6 0-16-12-16-20 0-4 8-21 18-21l209 0-37-171-205 0c-37 94-69 190-108 282-6 16-51 10-56 10-14 0-61 8-61-21z"/>
<glyph glyph-name="calendar-1" unicode="&#100;" d="M13 438l106 0 0 19c0 9 4 13 13 13 8 0 12-4 12-13l0-19 99 0 0 19c0 9 4 13 13 13 8 0 13-4 13-13l0-19 99 0 0 19c0 9 4 13 12 13 8 0 13-4 13-13l0-19 106 0c9 0 13-4 13-13l0-247c0-2 0-3-1-3l0-2-3-3-124-124c-1-1-1-2-2-2l-2-1c-1-1-3-1-5-1l-362 0c-9 0-13 4-13 13l0 370c0 9 4 13 13 13z m456-272l-82 0 0-81z m-444-99l337 0 0 112c0 8 4 12 13 12l112 0 0 222-94 0 0-20c0-4-1-7-4-9-3-2-6-3-9-3-8 0-12 4-12 12l0 20-99 0 0-20c0-4-1-7-4-9-3-2-6-3-9-3-4 0-6 1-9 3-3 2-4 5-4 9l0 20-99 0 0-20c0-8-4-12-12-12-4 0-6 1-9 3-3 2-4 5-4 9l0 20-94 0z m112 219c0-9-5-13-13-13l-18 0c-9 0-13 4-13 13 0 8 4 13 13 13l18 0c8 0 13-5 13-13z m94 0c0-9-4-13-13-13l-18 0c-9 0-13 4-13 13 0 8 4 13 13 13l18 0c9 0 13-5 13-13z m50 0c0 8 4 13 13 13l18 0c8 0 13-5 13-13 0-9-5-13-13-13l-18 0c-9 0-13 4-13 13z m94 0c0 8 4 13 13 13l18 0c9 0 13-5 13-13 0-9-4-13-13-13l-18 0c-9 0-13 4-13 13z m-238-107c0-9-5-13-13-13l-18 0c-9 0-13 4-13 13 0 8 4 12 13 12l18 0c8 0 13-4 13-12z m94 0c0-9-4-13-13-13l-18 0c-9 0-13 4-13 13 0 8 4 12 13 12l18 0c9 0 13-4 13-12z m94 0c0-9-5-13-13-13l-18 0c-9 0-13 4-13 13 0 8 4 12 13 12l18 0c8 0 13-4 13-12z"/>
<glyph glyph-name="calendar-2" unicode="&#101;" d="M144 496l0-24 91 0 0 24c3 13 12 16 19 16 8 0 21-6 21-16l0-24 92 0 0 24c3 13 12 16 19 16 7 0 20-6 20-16l0-24 34 0c4-1 8-2 12-2 32-4 60-46 60-69l0-121c-4-13-13-17-20-17-7 0-19 7-19 16l0 119c0 16-21 35-37 35l-30 0 0-23c-4-13-13-17-20-17-7 0-19 7-19 16l0 24-92 0 0-23c-4-13-13-17-21-17-7 0-19 7-19 16l0 24-91 0 0-23c-4-13-13-17-20-17-7 0-19 7-19 16l0 24-30 0c-17 0-36-20-36-36l0-321c0-17 20-37 36-37l242 0 0 91c1 3 2 8 2 11 4 33 46 60 69 60l106 0c10 1 18-12 18-19 0-13-9-17-24-33-46-48-92-96-138-143-3-3-8-6-11-6l-268 0c-3 1-8 3-11 3-33 4-60 46-60 68l0 330c1 3 2 8 2 11 4 33 46 60 69 60l34 0 0 24c3 13 12 16 19 16 7 0 20-6 20-16z m0-193c0-13-10-20-20-20-13 0-19 10-19 20 0 13 9 19 19 19 13 0 20-9 20-19z m87 0c0-13-10-20-20-20-13 0-19 10-19 20 0 13 9 19 19 19 13 0 20-9 20-19z m88 0c0-13-10-20-20-20-13 0-19 10-19 20 0 13 9 19 19 19 13 0 20-9 20-19z m87 0c0-13-10-20-20-20-13 0-19 10-19 20 0 13 9 19 19 19 13 0 20-9 20-19z m-262-88c0-13-10-20-20-20-13 0-19 10-19 20 0 13 9 19 19 19 13 0 20-9 20-19z m87 0c0-13-10-20-20-20-13 0-19 10-19 20 0 13 9 19 19 19 13 0 20-9 20-19z m88 0c0-13-10-20-20-20-13 0-19 10-19 20 0 13 9 19 19 19 13 0 20-9 20-19z m-175-87c0-13-10-20-20-20-13 0-19 10-19 20 0 13 9 19 19 19 13 0 20-9 20-19z m87 0c0-13-10-20-20-20-13 0-19 10-19 20 0 13 9 19 19 19 13 0 20-9 20-19z"/>
<glyph glyph-name="calendar-3" unicode="&#102;" d="M144 496c0 10-13 16-20 16-7 0-16-3-19-16l0-24-34 0c-23 0-65-27-69-60 0-3-1-8-2-11l0-330c0-22 27-66 60-70 3 0 8 0 11-1l164 0c10 0 17 13 17 20 0 7-4 16-17 19l-160 0c-16 0-36 20-36 37l0 321c0 15 19 36 36 36l30 0 0-24c0-9 12-16 19-16 7 0 16 4 20 17l0 23 91 0 0-24c0-9 12-16 19-16 8 0 17 4 21 17l0 23 92 0 0-24c0-9 12-16 19-16 7 0 16 4 20 17l0 23 30 0c16 0 37-19 37-35l0-123c0-9 12-16 19-16 7 0 16 4 20 17l0 125c0 23-28 65-60 69-4 0-8 1-12 2l-34 0 0 24c0 10-13 16-20 16-7 0-16-3-19-16l0-24-92 0 0 24c0 10-13 16-21 16-7 0-16-3-19-16l0-24-91 0z m0-193c0 10-7 19-20 19-10 0-19-6-19-19 0-10 6-20 19-20 10 0 20 7 20 20z m87 0c0 10-7 19-20 19-10 0-19-6-19-19 0-10 6-20 19-20 10 0 20 7 20 20z m88 0c0 10-7 19-20 19-10 0-19-6-19-19 0-10 6-20 19-20 10 0 20 7 20 20z m87 0c0 10-7 19-20 19-10 0-19-6-19-19 0-10 6-20 19-20 10 0 20 7 20 20z m106-182c0 65-53 120-121 120-54 0-112-38-120-111l0-19c0-2 2-13 3-19 17-63 70-92 117-92 65 0 121 53 121 121z m-40 0c0-46-38-81-81-81-46 0-80 38-80 81 0 46 37 80 80 80 46 0 81-37 81-80z m-61 44c0 10-13 16-20 16-7 0-16-3-19-16l0-48c0-4 8-13 12-14 6-2 19-2 22-2 10 0 34-3 34 20 0 16-15 20-29 19z m-267 50c0 10-7 19-20 19-10 0-19-6-19-19 0-10 6-20 19-20 10 0 20 7 20 20z m87 0c0 10-7 19-20 19-10 0-19-6-19-19 0-10 6-20 19-20 10 0 20 7 20 20z m-87-87c0 10-7 19-20 19-10 0-19-6-19-19 0-10 6-20 19-20 10 0 20 7 20 20z m87 0c0 10-7 19-20 19-10 0-19-6-19-19 0-10 6-20 19-20 10 0 20 7 20 20z"/>
<glyph glyph-name="calendar-4" unicode="&#103;" d="M144 496c0 10-13 16-20 16-7 0-16-3-19-16l0-24-34 0c-23 0-65-27-69-60 0-3-1-8-2-11l0-330c0-22 27-64 60-68 3 0 8-2 11-3l369 0c3 0 13 3 19 5 34 12 53 45 53 72 0 11-6 22-20 22-9 0-17-4-19-19 2-15-20-40-37-41l-361 0c-15 0-36 20-36 37l0 321c0 16 19 36 36 36l30 0 0-24c0-9 12-16 19-16 7 0 16 4 20 17l0 23 91 0 0-24c0-9 12-16 19-16 8 0 17 4 21 17l0 23 92 0 0-24c0-9 12-16 19-16 7 0 16 4 20 17l0 23 30 0c16 0 37-19 37-35l0-222c0-9 12-16 19-16 7 0 16 4 20 17l0 224c0 23-28 65-60 69-4 0-8 1-12 2l-34 0 0 24c0 10-13 16-20 16-7 0-16-3-19-16l0-24-92 0 0 24c0 10-13 16-21 16-7 0-16-3-19-16l0-24-91 0z m0-193c0 10-7 19-20 19-10 0-19-6-19-19 0-10 6-20 19-20 10 0 20 7 20 20z m87 0c0 10-7 19-20 19-10 0-19-6-19-19 0-10 6-20 19-20 10 0 20 7 20 20z m88 0c0 10-7 19-20 19-10 0-19-6-19-19 0-10 6-20 19-20 10 0 20 7 20 20z m87 0c0 10-7 19-20 19-10 0-19-6-19-19 0-10 6-20 19-20 10 0 20 7 20 20z m-262-88c0 10-7 19-20 19-10 0-19-6-19-19 0-10 6-20 19-20 10 0 20 7 20 20z m87 0c0 10-7 19-20 19-10 0-19-6-19-19 0-10 6-20 19-20 10 0 20 7 20 20z m137 19l-51 0c-15 1-38-19-37-35l0-56c0-16 19-33 35-35l55 0c17 0 34 20 36 36l0 55c0 15-20 37-38 35z m-2-40l0-46-46 0 0 46z m-222-66c0 10-7 19-20 19-10 0-19-6-19-19 0-10 6-20 19-20 10 0 20 7 20 20z m87 0c0 10-7 19-20 19-10 0-19-6-19-19 0-10 6-20 19-20 10 0 20 7 20 20z"/>
<glyph glyph-name="gear-1" unicode="&#104;" d="M300 512l-89 0c-13 3-37-19-36-33 0-4-1-8-2-12 0-4-1-8-2-12-3-18-17-29-30-29-17 0-30 14-50 14-8 0-13 1-22-6-14-10-21-29-29-42-3-5-30-45-30-64 0-40 47-41 47-72 0-31-47-32-47-72 0-21 21-47 33-69 6-11 12-22 20-31 10-11 18-12 28-12 20 0 33 14 50 14 11 0 26-7 29-24 4-19 5-59 39-62l93 0c12 0 31 15 33 29 3 15 3 32 11 44 6 10 18 13 25 13 17 0 29-14 50-14 7 0 13 0 22 7 13 10 21 28 28 41 11 23 31 43 31 64 0 39-47 41-47 72 0 30 47 33 47 71 0 19-17 40-27 58-8 15-16 31-27 44-9 11-18 11-27 11-21 0-33-14-50-14-12 0-27 9-30 24-4 21-6 61-41 62z m-3-40c1-5 2-10 2-15 4-43 37-71 72-71 18 0 31 9 50 14l41-73c-34-22-46-47-46-71 0-34 21-54 46-72l-41-72c-19 7-32 14-50 14-31 0-66-23-71-65l-3-21-82 0c-1 5-3 11-3 15-3 44-37 71-71 71-19 0-31-7-50-14l-41 72c33 23 46 47 46 72 0 27-14 48-46 71l41 73c19-5 31-14 50-14 34 0 68 28 71 71l3 15z m57-216c0 51-42 98-98 98-54 0-98-44-98-98 0-51 41-99 98-99 50 0 98 42 98 99z m-40 0c0-33-29-59-58-59-33 0-58 29-58 59 0 33 28 58 58 58 32 0 58-28 58-58z"/>
<glyph glyph-name="cross-1" unicode="&#105;" d="M54 508c67-64 134-133 201-200 66 64 129 135 198 197 11 10 14 6 23 6 24 0 36-15 36-34 0-5-2-14-5-19-64-67-131-134-198-201 63-66 132-129 194-198 11-11 9-14 9-23 0-24-16-36-36-36-4 0-14 2-17 5-69 64-135 131-202 198-65-63-131-132-198-194-12-11-15-9-24-9-24 0-34 17-34 36 0 4 0 14 3 17 64 69 133 135 200 202-64 65-135 131-197 198-10 12-6 15-6 24 0 24 15 34 34 34 5 0 14 0 19-3z"/>
<glyph glyph-name="tick-1" unicode="&#106;" d="M512 414c0-21-28-36-48-60-16-17-35-34-50-50-76-75-152-153-228-229-6-4-12-5-16-5-11 0-18 5-31 20-44 46-91 90-135 136-4 5-4 12-4 16 0 19 15 27 28 27 7 0 8 3 16-4 43-39 84-85 126-126 17 16 35 33 52 51 13 14 29 31 44 44 66 67 132 138 202 203 7 8 8 4 16 4 16 0 28-12 28-27z"/>
<glyph glyph-name="login-1" unicode="&#107;" d="M431 512l-134 0c-16-7-16-11-16-22 0-11 3-19 17-23l125 0c8 0 23-12 22-23l0-374c1-8-12-24-22-24l-125 0c-13 0-17-15-17-23 0-12 2-15 18-23l126 0c28 0 62 28 65 60l0 394c0 23-34 59-59 58z m-178-150c-12 12-12 10-21 10-13 0-23-10-23-22 0-17 48-57 61-70l-229-1c-17-3-19-12-19-22 0-10 2-19 19-23l229-1c-15-13-61-51-61-70 0-10 10-23 23-23 3 0 9 2 12 4 31 29 62 62 94 91 7 7 12 16 12 22 0 2-2 10-5 13-30 32-61 63-92 92z"/>
<glyph glyph-name="logout-1" unicode="&#108;" d="M431 512l-134 0c-16-7-16-11-16-22 0-11 3-19 17-23l125 0c8 0 23-12 22-23l0-374c1-8-12-24-22-24l-125 0c-13 0-17-15-17-23 0-12 2-15 18-23l126 0c28 0 62 28 65 60l0 394c0 23-34 59-59 58z m-312-150c-31-29-62-60-91-92-4-3-6-11-6-13 0-6 6-15 12-22 32-29 63-62 94-91 3-2 10-4 12-4 13 0 23 13 23 23 0 19-46 57-61 70l229 1c17 4 19 13 19 23 0 10-2 19-19 22l-229 1c14 13 61 53 61 70 0 12-10 22-23 22-9 0-9 2-21-10z"/>
<glyph glyph-name="star-1" unicode="&#109;" d="M269 498c-4 5-8 4-14 4-6 0-12 3-18-9-15-22-25-49-37-73-9-21-21-45-32-66-40-6-79-12-118-17-13-3-28-3-40-8-11-4-10-12-10-20 0-4-2-9 4-14 36-36 74-73 109-108 1-1 1-2 1-2l-25-151c-3-13 10-24 22-24 3 0 7 1 11 3 45 23 131 70 133 70 7 0 133-73 144-73 10 0 23 8 23 24l-25 151 0 2c31 30 61 59 92 90 13 13 23 20 23 32 0 25-34 25-49 28-15 1-32 4-45 6-25 4-50 7-74 11-12 23-25 48-36 71-7 15-16 33-23 47-5 10-7 19-16 26z m39-179c5-9 16-10 25-11 33-5 69-11 104-15-28-29-58-56-86-86-2-2-2-8-3-12l20-118c-8 4-99 56-113 56-2 0-6 1-9-1-34-18-68-36-102-55l19 118c0 3-1 9-4 12-27 30-57 57-84 86 38 5 77 11 116 17 11 1 16 19 21 28 9 17 19 36 27 54l16 33c18-34 34-71 53-106z"/>
<glyph glyph-name="star-2" unicode="&#110;" d="M269 498c-4 5-8 4-14 4-6 0-12 3-18-9-15-22-25-49-37-73-9-21-21-45-32-66-40-6-79-12-118-17-13-3-28-3-40-8-11-4-10-12-10-20 0-4-2-9 4-14 36-36 74-73 109-108 1-1 1-2 1-2l-25-151c-3-13 10-24 22-24 3 0 7 1 11 3 45 23 131 70 133 70 7 0 133-73 144-73 10 0 23 8 23 24l-25 151 0 2c31 30 61 59 92 90 13 13 23 20 23 32 0 25-34 25-49 28-15 1-32 4-45 6-25 4-50 7-74 11-12 23-25 48-36 71-7 15-16 33-23 47-5 10-7 19-16 26z"/>
<glyph glyph-name="play-1" unicode="&#111;" d="M512 257c0 142-116 255-257 255-112 0-233-71-255-229l0-53c0-13 15-65 18-70 50-115 153-160 237-160 138 0 257 114 257 257z m-47 0c0-119-96-210-210-210-68 0-158 37-195 132-4 12-14 51-14 65l0 25c12 129 112 197 209 197 119 0 210-96 210-209z m-228 102c-19 13-16 13-28 13-11 0-19-3-23-18l0-195c0-11 15-19 23-19 2 0 9 2 12 4 47 31 94 63 141 94 7 5 10 14 10 19 0 2-4 14-7 15-42 30-85 59-128 87z m68-102l-72-49 0 97z"/>
<glyph glyph-name="play-2" unicode="&#112;" d="M117 468c-3-4-5-8-5-13l0-325c0-5 2-10 5-13 3-3 8-5 13-5l325 0c5 0 9 2 13 5 3 3 5 8 5 13l0 325c0 5-2 9-5 13-4 3-8 5-13 5l-325 0c-5 0-10-2-13-5z m336 44c16 0 30-6 41-18 12-11 18-25 18-41l0-321c0-16-6-30-18-42-11-11-25-17-41-17l-321 0c-16 0-30 6-42 17-11 12-17 26-17 42l0 321c0 16 6 30 17 41 12 12 26 18 42 18z m-71-205c5-2 7-7 7-14 0-8-7-15-22-22l-46-23-64-32c-19-9-29-14-32-14-12 0-18 4-18 13l0 155c3 9 9 13 18 13 3 0 6-1 9-2 3-1 7-3 11-5 4-2 7-3 9-4 57-28 100-50 128-65z m-138 28l0-85 85 43z m-244 82c0 5 2 10 6 14 3 4 8 6 13 6 5 0 10-2 14-6 4-4 6-9 6-14l0-360c0-5 2-9 5-13 4-3 8-5 13-5l360 0c5 0 10-2 14-6 4-4 6-9 6-14 0-5-2-10-6-13-4-4-9-6-14-6l-358 0c-16 0-30 6-41 18-12 11-18 25-18 41z"/>
<glyph glyph-name="play-3" unicode="&#113;" d="M40 85l447 0 0 306-3 0 0 25 15 0c9 0 13-4 13-13l0-330c0-9-4-13-13-13l-459 0z m-27 367l446 0c9 0 13-4 13-13l0-207c0-1 0-2-1-3l0-2-129-129-2-1c-1-1-3-1-5-1l-322 0c-9 0-13 4-13 13l0 330c0 9 4 13 13 13z m416-232l-82 0 0-81z m-404-99l297 0 0 112c0 8 4 12 13 12l112 0 0 182-422 0z m163 112l0 82c0 5 2 8 6 10 3 1 7 1 11 0l73-41c4-2 6-5 6-10 0-5-2-8-6-10l-73-41c-1-1-3-1-6-1-3 0-4 0-5 1-4 2-6 5-6 10z"/>
<glyph glyph-name="play-4" unicode="&#114;" d="M187 468c-39 20-73 44-108 44-38 0-72-22-79-73l0-367c0-3 2-17 6-25 18-36 43-47 69-47 17 0 20-1 42 10 114 56 230 115 344 174 33 17 51 48 51 71 0 27-16 55-47 72-92 50-185 96-278 141z m9-63c39-19 79-40 118-60l58-29c17-8 34-18 52-27 13-6 34-18 34-32 0-21-46-38-53-43-22-11-46-22-68-34-84-41-167-85-249-125-3-1-7-3-10-3-12 0-26 12-26 25l0 358c6 20 10 25 25 25 19 0 103-48 119-55z"/>
<glyph glyph-name="play-5" unicode="&#115;" d="M105 425c0 8-6 17-18 17-21 0-66-78-70-92-7-24-16-48-17-72l0-44c0-3 1-8 1-12 6-43 22-89 61-134 11-12 15-18 25-18 8 0 18 7 18 18 0 16-69 62-69 169 0 40 4 64 27 107 6 13 14 24 24 35 5 6 12 11 15 17 2 2 3 5 3 9z m389-75c-3 8-44 92-69 92-12 0-17-6-17-17 0-4 0-7 1-9 10-15 27-32 35-46 6-9 12-22 16-32 10-20 13-41 16-61l0-41c-3-21-8-41-16-62-10-25-29-52-51-78-2-2-1-5-1-9 0-10 3-17 16-17 26 0 67 85 70 92 16 46 18 56 18 95 0 38-2 48-18 93z m-337 22c0 10-9 16-18 16-27 0-54-65-55-70-6-13-8-29-11-44l0-38c0-23 23-76 39-95 11-11 15-19 27-19 8 0 18 6 18 17 0 17-48 41-48 116 0 38 8 65 42 105 4 3 6 9 6 12z m243-4c-14 17-15 20-27 20-11 0-17-6-17-17 0-15 9-16 23-35 6-7 9-15 13-24 5-13 9-28 11-39l0-35c-2-11-7-30-12-42-7-16-19-31-34-48-2-2-1-6-1-9 0-11 4-17 16-17 25 0 63 81 63 99 0 12 4 31 4 34 0 37-9 76-39 113z m-171-18c-8 5-22 15-29 15-5 0-17-3-17-12l0-193c0-8 9-13 17-13 12 0 131 76 156 94 9 6 8 10 8 14 0 7 3 8-5 14-43 30-88 55-130 81z m83-93l-92-59 0 116z"/>
<glyph glyph-name="pause-1" unicode="&#116;" d="M19 160l0 0 0 0c50-115 153-160 237-160 137 0 256 114 256 257 0 142-116 255-256 255-84 0-173-40-221-126l0 0c-22-38-35-82-35-129 0-34 7-67 19-97z m446 97c0-119-96-210-209-210-51 0-114 21-158 71l1 0c-32 37-52 85-52 139 0 48 16 93 44 129l0 0c41 53 103 80 165 80 119 0 209-96 209-209z m-232 72c0 12-13 20-23 20-10 0-18-1-23-18l0-149c0-11 15-18 23-18 8 0 22 6 23 21z m92 2c0 13-16 18-23 18-9 0-18-3-21-15l0-155c0-9 15-15 21-15 9 0 17 2 23 19z"/>
<glyph glyph-name="pause-2" unicode="&#117;" d="M171 510c-10 3-28 2-31 2-38 0-70-4-88-64l0-384c0-3 4-17 8-25 30-40 47-39 80-39 42 0 78 8 90 73l0 366c0 28-26 65-59 71z m7-73l0-361c-4-24-25-25-38-25-3 0-12 1-18 2-9 1-20 13-20 22l0 362c2 23 22 24 38 24 18 0 38-5 38-24z m223 73c-9 3-27 2-31 2-37 0-70-4-88-64l0-384c0-3 4-17 9-25 30-40 47-39 79-39 42 0 78 8 90 73l0 366c0 28-25 65-59 71z m7-73l0-361c-3-24-25-25-38-25-2 0-12 1-18 2-8 1-19 13-19 22l0 362c1 23 21 24 37 24 18 0 38-5 38-24z"/>
<glyph glyph-name="email-1" unicode="&#118;" d="M448 468l-385 0c-29 1-63-35-63-64l0-296c0-27 32-62 61-64l389 0c29 0 61 39 62 65l0 295c0 29-33 63-64 64z m-4-48c5 1 15-3 18-12l-207-146-205 146c0 6 10 13 17 12z m-198-209c2-2 7-3 9-3 4 0 8 1 11 3 66 46 132 93 199 141l0-240c-1-6-11-20-18-20l-383 0c-9 2-17 13-17 21l0 239c65-47 131-94 199-141z"/>
<glyph glyph-name="download-1" unicode="&#119;" d="M67 147c0 11-16 15-23 15-10 0-13 0-22-15l0-88c0-22 32-57 64-59l339 0c26 0 62 28 65 60l0 87c0 11-17 15-23 15-10 0-13 0-22-15l0-77c1-8-12-24-22-24l-335 0c-8 0-23 13-21 24z m212 347c-5 17-14 18-24 18-9 0-13 0-22-15l0-277c-20 18-41 40-61 58-4 2-8 1-10 1-12 0-22-7-22-22 0-3-1-8 1-11 30-32 63-63 94-94 8-9 13-12 20-12 4 0 9 1 14 4 18 18 37 37 56 55 12 14 48 42 48 58 0 12-10 22-23 22-3 0-8 1-10-1-21-18-41-40-60-58z"/>
<glyph glyph-name="upload-1" unicode="&#120;" d="M67 147c0 11-16 15-23 15-10 0-13 0-22-15l0-88c0-22 32-57 64-59l339 0c26 0 62 28 65 60l0 87c0 11-17 15-23 15-10 0-13 0-22-15l0-77c1-8-12-24-22-24l-335 0c-8 0-23 13-21 24z m212 11l1 274c19-18 39-40 60-58 2-2 7-1 10-1 13 0 23 10 23 22 0 16-36 44-48 58-19 19-38 37-56 55-5 3-10 4-14 4-7 0-12-3-20-12-31-31-64-62-94-94-2-3-1-8-1-11 0-15 10-22 22-22 2 0 6-1 10 1 20 18 41 40 61 58l0-277c9-15 13-15 22-15 10 0 19 1 24 18z"/>
<glyph glyph-name="eye-1" unicode="&#121;" d="M340 432c-22 10-60 16-85 16-19 0-44-3-63-9-50-14-106-54-149-110-5-5-43-56-43-73 0-19 49-80 58-91 18-22 45-44 66-58 13-9 29-18 41-23 14-6 28-11 42-14 13-3 33-6 48-6 20 0 45 4 65 10 57 15 134 80 171 141 5 9 21 30 21 41 0 21-62 95-69 102-20 22-42 40-61 52-14 9-28 16-42 22z m-36-33c15-4 33-12 50-22 13-8 27-18 41-31 14-13 30-31 42-47 11-13 29-40 29-43 0-3-8-12-11-18-21-34-65-80-101-102-32-19-66-29-99-29-15 0-32 3-47 7-13 3-31 11-43 18-10 5-21 12-30 20-14 10-28 23-40 36-8 8-49 61-49 68 0 3 18 30 28 43 38 52 89 88 134 100 15 5 32 6 47 6 16 0 33-2 49-6z m37-143c0 47-36 85-86 85-35 0-76-20-84-72l0-26c0-2 2-13 5-19 19-40 49-53 79-53 47 0 86 36 86 85z m-42 0c0-25-21-43-44-43-25 0-42 21-42 43 0 26 20 43 44 43 24 0 42-20 42-43z"/>
<glyph glyph-name="eye-2" unicode="&#122;" d="M31 510c-3 2-8 2-11 2-11 0-20-9-20-20 0-3 1-10 4-14 30-31 62-62 93-93-15-14-31-29-43-43-4-4-54-69-54-86 0-21 68-102 70-104 17-17 35-33 54-45 24-17 50-29 75-35 16-5 38-8 55-8 27 0 59 6 86 17 13 5 38 20 40 20 3 0 61-61 92-91 7-7 12-10 19-10 9 0 21 7 21 21 0 2-2 10-5 13-110 112-222 224-333 334l-70 70c-24 24-49 50-73 72z m150-210c-10-15-13-30-13-46 0-48 40-86 86-86 16 0 31 4 46 13l49-49c-30-16-65-25-95-25-15 0-33 4-46 7-13 3-31 11-43 18-10 5-21 12-30 20-14 10-28 23-40 36-8 8-49 61-49 68 0 3 4 8 5 10 17 30 46 62 76 88z m86-87c-4 0-10-1-13-1-24 0-42 18-42 42 0 4 1 9 0 13z m38 230c-18 5-33 5-50 5-16 0-46-1-57-9-10-6-8-11-8-17 0-9 6-21 20-21 3 0 20 4 29 5l16 0c17 0 33-2 49-6 43-11 97-50 134-101 10-14 29-40 29-43 0-5-35-49-41-59-2-2-2-7-2-9 0-12 9-21 21-21 4 0 6 1 12 4 7 4 55 68 55 85 0 17-37 63-44 73-20 30-59 65-86 81-12 7-24 14-35 19-14 6-29 10-42 14z"/>
<glyph glyph-name="arrow-1" unicode="&#65;" d="M163 432c-50-53-107-101-155-156-10-11-8-11-8-19 0-12 7-19 23-35 56-52 106-109 160-161 7-5 11-5 16-5 16 0 28 12 28 28 0 3 0 10-2 12-24 29-54 57-80 83-15 16-32 32-47 49l394 0c16 8 20 18 20 29 0 14-9 24-23 27l-391 1c40 42 84 85 124 127 4 5 5 13 5 17 0 15-12 27-28 27-16 0-16-3-36-24z"/>
<glyph glyph-name="arrow-2" unicode="&#66;" d="M349 432c50-53 107-101 155-156 10-11 8-11 8-19 0-12-7-19-23-35-56-52-106-109-160-161-7-5-11-5-16-5-16 0-28 12-28 28 0 3 0 10 2 12 24 29 54 57 80 83 15 16 32 32 47 49l-394 0c-16 8-20 18-20 29 0 14 9 24 23 27l391 1c-40 42-84 85-124 127-4 5-5 13-5 17 0 15 12 27 28 27 16 0 16-3 36-24z"/>
<glyph glyph-name="arrow-3" unicode="&#67;" d="M80 163c53-50 101-107 156-155 11-10 11-8 19-8 12 0 19 7 35 23 52 56 109 106 161 160 5 7 5 11 5 16 0 16-12 28-28 28-3 0-10 0-12-2-29-24-57-54-83-80-16-15-32-32-49-47l0 394c-8 16-18 20-29 20-14 0-24-9-27-23l-1-391c-42 40-85 84-127 124-5 4-13 5-17 5-15 0-27-12-27-28 0-16 3-16 24-36z"/>
<glyph glyph-name="arrow-4" unicode="&#68;" d="M80 349c53 50 101 107 156 155 11 10 11 8 19 8 12 0 19-7 35-23 52-56 109-106 161-160 5-7 5-11 5-16 0-16-12-28-28-28-3 0-10 0-12 2-29 24-57 54-83 80-16 15-32 32-49 47l0-394c-8-16-18-20-29-20-14 0-24 9-27 23l-1 391c-42-40-85-84-127-124-5-4-13-5-17-5-15 0-27 12-27 28 0 16 3 16 24 36z"/>
<glyph glyph-name="arrow-5" unicode="&#69;" d="M383 501c25-28 55-54 82-83 3-3 5-9 5-12 0-4-6-13-10-18-30-28-59-59-88-86-3-2-7-2-9-2-12 0-22 9-22 21 0 16 48 56 56 63l-253 1c-36-1-61-35-61-63l0-49c-6-12-13-17-21-17-6 0-20 7-20 16l0 62c1 6 3 14 4 19 10 44 65 76 98 74l253 1c-8 8-56 48-56 63 0 12 9 21 22 21 6 0 13-3 20-11z m86-261l0-61c-1-7-4-13-5-20-6-38-64-76-96-74l-253-1c7-7 55-48 55-63 0-14-12-21-22-21-7 0-11 3-19 11-29 28-59 57-86 86-2 3-1 7-1 9 0 7 0 11 9 19 29 27 59 59 89 86 2 2 6 1 9 1 12 0 21-9 21-20 0-16-48-56-55-64l253-1c34 0 61 39 60 63l0 50c5 12 12 15 20 15 6 0 21-5 21-15z"/>
<glyph glyph-name="arrow-6" unicode="&#70;" d="M398 256l-239-256-45 49 193 207-193 207 45 49z"/>
<glyph glyph-name="arrow-7" unicode="&#71;" d="M114 256l239-256 45 49-193 207 193 207-45 49z"/>
<glyph glyph-name="arrow-8" unicode="&#72;" d="M256 398l256-239-49-45-207 193-207-193-49 45z"/>
<glyph glyph-name="arrow-9" unicode="&#73;" d="M256 114l256 239-49 45-207-193-207 193-49-45z"/>
<glyph glyph-name="arrow-10" unicode="&#74;" d="M63 261c2 53 21 97 56 133 31 29 67 47 108 55l-3 63c-58-7-108-31-148-72-49-49-74-109-76-180-1-69 23-130 71-181l-55-53 173-11 0 182-73-73c-35 39-53 84-53 137z m260 238l1-183 72 73c35-38 53-84 53-137-2-52-21-97-56-133-31-29-67-47-106-54l1-65c60 9 109 33 148 73 49 49 74 109 76 181 1 69-23 129-71 180l55 54z"/>
<glyph glyph-name="arrow-11" unicode="&#75;" d="M337 451c-16 16-23 29-38 29-9 0-20-6-21-21l0-86c-12-1-25-2-35-3-14-2-29-6-42-10-10-3-21-8-31-12-8-4-18-9-25-13-79-43-127-128-138-192-3-18-5-36-7-54l0-38c0-11 11-19 22-19 4 0 14 5 17 11 17 32 47 68 80 93 25 20 51 33 78 41 13 4 28 6 42 8l38 0 1-111c0-10 8-20 21-20 3 0 8 1 11 3 58 56 116 114 174 172 15 16 28 24 28 38 0 3-2 10-5 13-56 58-113 115-170 171z m123-183l-139-141 0 81c-2 5-8 14-14 15-15 4-34 5-50 5-68 0-144-28-209-101 21 128 137 204 237 204l18 0c7 1 17 11 18 17l0 59z"/>
<glyph glyph-name="arrow-12" unicode="&#76;" d="M175 451c16 16 23 29 38 29 9 0 20-6 21-21l0-86c12-1 25-2 35-3 14-2 29-6 42-10 10-3 21-8 31-12 8-4 18-9 25-13 79-43 127-128 138-192 3-18 5-36 7-54l0-38c0-11-11-19-22-19-4 0-14 5-17 11-17 32-47 68-80 93-25 20-51 33-78 41-13 4-28 6-42 8l-38 0-1-111c0-10-8-20-21-20-3 0-8 1-11 3-58 56-116 114-174 172-15 16-28 24-28 38 0 3 2 10 5 13 56 58 113 115 170 171z m-123-183l139-141 0 81c2 5 8 14 14 15 15 4 34 5 51 5 67 0 143-28 208-101-21 128-137 204-237 204l-18 0c-7 1-17 11-18 17l0 59z"/>
<glyph glyph-name="arrow-13" unicode="&#77;" d="M303 488c-16 17-32 24-47 24-9 0-24-1-31-9-68-64-133-134-201-200-17-15-24-31-24-47 0-8 2-23 9-31 64-67 134-132 200-201 15-16 31-24 47-24 9 0 24 3 34 12 66 65 130 133 198 197 16 16 24 32 24 47 0 9-2 24-10 31-64 68-134 133-199 201z m-7-38c59-58 120-118 178-179 4-4 6-10 6-16 0-14-16-24-30-39-58-59-118-120-179-178-7-6-9-6-15-6-16 0-25 16-40 30-60 58-121 118-179 179-6 7-5 9-5 15 0 16 15 25 30 40 58 60 117 121 179 179 6 7 8 5 15 5 15 0 24-15 40-30z m45-111c-16 16-21 28-35 28-10 0-15-5-15-14 0-11 21-28 32-40l-157-1c-6 0-13-8-14-12l0-112c0-8 11-12 15-12 4 0 13 3 16 13l0 92 138 0c-8-10-32-29-32-41 0-7 5-16 15-16 14 0 61 57 65 60 6 4 7 10 7 13 0 13-25 33-35 42z"/>
<glyph glyph-name="arrow-14" unicode="&#78;" d="M256 112l178 181 54-56-232-237-232 237 55 56z m0 219l178 181 54-56-232-237-232 237 55 56z"/>
<glyph glyph-name="arrow-15" unicode="&#79;" d="M248 210l-38 38c-2 2-5 3-8 3-3 0-5-1-7-3l-112-110-49 48c-5 4-10 6-15 6-5 0-10-2-15-6-4-4-6-9-6-15l0-150c0-6 2-11 6-15 4-4 9-6 15-6l151 0c6 0 11 2 15 6 4 5 6 10 6 15 0 5-2 10-6 15l-48 48 111 111c2 3 3 5 3 7 0 3-1 6-3 8z m260 296c-4 4-9 6-15 6l-151 0c-6 0-11-2-15-6-4-5-6-10-6-15 0-5 2-10 6-15l48-48-111-111c-2-3-3-5-3-7 0-3 1-6 3-8l38-38c2-2 5-3 8-3 3 0 5 1 7 3l112 110 48-48c6-4 11-6 16-6 5 0 10 2 15 6 4 4 6 9 6 15l0 150c0 6-2 11-6 15z"/>
<glyph glyph-name="inbox-1" unicode="&#80;" d="M419 482c0-3-3-20-8-52 1-1 14-1 40-1 5 0 9-3 14-8 5-5 7-9 8-14l-8-54 27-1c13-5 20-13 20-24 0-1-1-5-2-12 0-7-2-15-2-24-2-9-2-17-2-22-3-24-4-42-5-53-1-5-3-31-7-78-4-46-8-81-11-106-1-7-5-13-12-19-7-5-14-8-20-8l-391 0c-9 1-17 6-24 16-6 9-9 19-10 28l-5 64c-2 26-4 51-7 74-2 24-4 47-6 68-3 21-5 39-6 52l-2 20c0 5 2 10 6 15 3 6 8 9 13 9l28 0 1 2-8 51c-1 3 0 8 4 14 5 7 10 10 15 10l41 0 1 3-8 50c-1 6 2 12 7 17 6 5 12 8 17 7l278 0c16 0 24-8 24-24z m-288-12l6-40 238 0c3 17 5 30 7 40z m301-97c1 9 2 15 3 20l-357 0 6-40 345 0c1 5 2 11 3 20z m43-57l-438 0 26-274 386 0z m-126-95c0-5-2-9-6-13-4-3-8-5-13-5l-149 0c-12 2-18 8-18 18 0 10 5 16 15 17l155 0c11-2 16-8 16-17z"/>
<glyph glyph-name="inbox-2" unicode="&#81;" d="M503 503c6-6 9-14 9-23l0-448c0-9-3-17-9-23-6-6-14-9-23-9l-448 0c-9 0-17 3-23 9-6 6-9 14-9 23l0 448c0 9 3 17 9 23 6 6 14 9 23 9l448 0c9 0 17-3 23-9z m-55-55l-384 0 0-288 96 0 0-96 192 0 0 96 96 0z m-320-224l256 0 0 64-256 0z m0 96l256 0 0 64-256 0z"/>
<glyph glyph-name="inbox-3" unicode="&#82;" d="M371 468l-231 0c-13-1-25-4-36-14-8-6-14-13-18-20-29-65-58-132-86-197l0-129c0-27 32-62 61-64l389 0c27 0 62 39 62 65l0 128c0 3-32 72-47 106-14 31-26 69-45 97-13 22-32 26-49 28z m-3-48c13 3 21-20 24-27 20-46 40-91 60-136l-108 0c-2-2-7-2-8-4-18-20-33-46-47-67l-66 0c-8 11-42 71-56 71l-107 0c4 11 10 23 14 34 19 40 35 82 55 122 2 4 11 9 14 7z m-217-212c9-12 38-71 55-71l99 0c4 1 9 2 13 7 16 18 29 42 43 64l104 0 0-96c-3-9-12-20-18-20l-383 0c-9 2-17 13-17 21l0 95z"/>
<glyph glyph-name="inbox-4" unicode="&#83;" d="M124 478c-7 0-12-3-13-8-12-27-26-64-43-110-1-3-5-12-10-28-2-4-7-18-16-41l99 0c5 0 11-2 17-5 5-3 9-7 12-11 4-3 8-9 14-16 5-7 9-12 11-15 2-2 4-4 7-5l107 0c3 0 6 2 10 7 4 5 7 9 11 14 2 5 4 8 5 9 5 7 12 14 23 19 1 1 3 1 6 2 4 1 5 1 6 1l100 0-57 147c-1 3-3 8-5 15-2 7-4 13-8 17-3 4-7 7-13 8z m387-434c0-9-5-18-15-28-9-11-19-16-28-16l-424 0c-9 0-19 5-29 16-10 10-15 19-15 28l0 233c7 21 14 38 20 53 15 43 29 78 41 106 1 3 4 10 8 21 4 12 7 21 11 27 2 6 8 12 15 18 7 7 16 10 26 10l269 0c11 1 21-4 30-15 9-11 16-22 19-33 6-18 15-43 27-74 13-31 24-57 32-79 9-22 14-33 14-34z m-477 211l0-206c0-7 4-12 13-15l417 0c9 2 13 7 13 15l1 206-105 0c-3 0-7-2-11-7-3-4-6-9-10-14-3-5-4-7-5-8-3-5-6-8-10-11-1-1-10-4-25-11l-113 0c-4 0-10 2-18 7-8 5-13 10-16 13-2 3-5 7-9 14-5 7-8 11-11 14-2 2-5 3-9 3z m341 155c0-3-1-7-3-11-3-4-6-6-11-6l-211 0c-9 3-13 9-13 17 0 11 5 16 15 16l207 0c11 0 16-5 16-16z m17-68c0-3-1-7-4-11-2-4-5-6-10-6l-245 0c-9 3-13 8-13 17 0 11 5 16 15 16l241 0c11 0 16-5 16-16z m-177-256c-11 0-21 5-31 16-9 11-14 22-14 33 0 12 6 18 18 18 9 0 14-5 16-15 2-11 7-17 15-19l74 0c5 1 9 4 11 8 3 4 4 8 4 11 0 4 1 7 4 10 2 4 6 5 12 5 11 0 17-6 17-18 0-12-5-23-14-33-9-11-20-16-31-16z"/>
<glyph glyph-name="layers-1" unicode="&#84;" d="M301 493c-15 8-32 19-46 19-2 0-8 1-10-1-58-29-116-58-174-87-12-6-26-13-37-18-22-11-34-13-34-33 0-8-3-12 10-19 65-36 135-66 201-100 9-5 32-20 44-20 3 0 7 0 10 2 70 34 141 69 211 105 17 10 36 13 36 32 0 6-3 15-9 18-68 35-135 70-202 102z m134-120l-180-90-179 90 179 90z m-373-109c-14 5-27 15-40 15-15 0-22-10-22-22 0-4-2-13 9-19 66-35 135-67 201-100 5-2 36-21 45-21 12 0 174 84 221 108 17 9 36 12 36 32 0 12-10 22-23 22-3 0-8 1-10-1-74-36-221-112-224-112-2 0-129 66-193 98z m0-117c-14 5-27 15-40 15-15 0-22-10-22-22 0-6-2-12 8-18 66-36 136-68 202-101 5-2 36-21 45-21 9 0 195 96 222 108 16 9 35 16 35 32 0 12-10 22-23 22-3 0-7 1-8 0-76-37-223-113-226-113-2 0-129 66-193 98z"/>
<glyph glyph-name="layers-2" unicode="&#85;" d="M376 436l0-52 52 0c11 0 16-5 16-16l0-51 52 0c5 0 9-2 11-5 3-3 5-7 5-12l0-224c0-11-5-16-16-16l-344 0c-11 0-16 5-16 16l0 52-52 0c-11 0-16 5-16 16l0 51-52 0c-5 0-9 2-11 5-4 3-5 7-5 12l0 224c0 11 5 16 16 16l344 0c11 0 16-5 16-16z m-32-208l0 191-311 0 0-191z m100 56l0-140c0-11-5-16-16-16l-260 0 0-35 311 0 0 191z m-68 68l0-140c0-5-2-9-5-12-2-3-6-5-11-5l-259 0 0-35 310 0 0 192z"/>
<glyph glyph-name="delete-1" unicode="&#86;" d="M313 512l-115 0c-25 0-59-36-59-62l0-31-100 0c-13 0-17-15-17-22 0-9 2-16 17-23l29 0 0-311c0-27 37-64 65-63l245 0c25 0 64 27 66 66l0 308 28 0c12 0 18 17 18 23 0 9-2 17-18 22l-99 0 0 30c0 25-28 64-60 63z m-9-46c7 2 22-10 22-19l0-27-140 0 0 27c0 10 12 19 21 19z m92-93l0-306c-1-5-3-8-5-11-3-5-11-9-14-9l-243 0c-8 2-18 13-18 21l0 305z"/>
<glyph glyph-name="delete-2" unicode="&#87;" d="M402 54c-2-4-4-7-5-8l-3-4-276 0-3 4c-2 1-3 4-4 8-2 6-3 11-3 14l0 317 296 0 0-317c0-3-1-8-2-14z m-203 412c0 1 2 2 5 4l104 0c3-2 5-3 6-4l16-39-148 0z m287-42c-3 2-6 3-8 3l-102 0-23 56c-4 8-10 15-18 21-8 5-16 8-26 8l-106 0c-9 0-18-3-26-8-8-6-14-13-18-21l-23-56-102 0c-2 0-5-1-8-3-1-3-2-6-2-8l0-21c0-2 1-5 2-8 3-2 6-2 8-2l32 0 0-318c0-19 5-35 15-48 11-13 23-19 37-19l276 0c14 0 26 7 37 20 10 13 15 29 15 48l0 317 32 0c2 0 5 0 8 2 1 3 2 6 2 8l0 21c0 2-1 5-2 8z m-296-107c-2 2-5 3-8 3l-20 0c-4 0-7-1-9-3-2-1-2-3-2-7l0-193c0-4 0-6 2-7 2-3 5-4 9-4l20 0c3 0 6 1 8 4 1 1 2 4 2 7l0 193c0 3-1 5-2 7z m84 0c-2 2-5 3-8 3l-20 0c-3 0-6-1-8-3-2-2-3-4-3-7l0-193c0-3 1-6 3-7 2-3 5-4 8-4l20 0c3 0 6 1 8 4 2 1 3 4 3 7l0 193c0 3-1 5-3 7z m85 0c-2 2-5 3-8 3l-21 0c-3 0-6-1-8-3-2-2-2-4-2-7l0-193c0-3 0-6 2-7 2-3 5-4 8-4l21 0c3 0 6 1 8 4 1 1 2 3 2 7l0 193c0 4-1 6-2 7z"/>
<glyph glyph-name="search-1" unicode="&#88;" d="M448 289c0 122-99 223-225 223-102 0-210-71-223-210l0-27c0-2 2-25 5-37 29-120 131-174 218-174 43 0 95 14 135 44 34-34 68-69 103-101 4-4 13-7 19-7 18 0 32 14 32 32 0 7-3 16-8 20-33 35-100 100-100 102 0 3 9 14 13 21 5 9 10 18 13 26 12 29 18 60 18 88z m-64 0c0-91-75-161-161-161-59 0-129 34-153 114-3 11-6 33-6 35l0 23c11 98 86 148 159 148 91 0 161-72 161-159z"/>
<glyph glyph-name="zoom-in-1" unicode="&#89;" d="M60 287c0 90 73 163 163 163 90 0 163-73 163-163 0-90-73-163-163-163-90 0-163 73-163 163z m388 2c0 122-99 223-225 223-102 0-210-71-223-210l0-27c0-2 2-25 5-37 29-120 131-174 218-174 43 0 95 14 135 44 34-34 68-69 103-101 4-4 13-7 19-7 18 0 32 14 32 32 0 7-3 16-8 20-33 35-100 100-100 102 0 3 9 14 13 21 5 9 10 18 13 26 12 29 18 60 18 88z m-193 77c0 14-18 19-25 19-14 0-17-2-25-20l0-56-56 0c-14 0-20-17-20-25 0-12 3-21 19-25l57 0 0-56c0-12 13-22 25-22 10 0 18 5 25 21l0 57 57 0c13 0 20 18 20 25 0 10-6 23-22 25l-55 0z"/>
<glyph glyph-name="zoom-out-1" unicode="&#90;" d="M459 282c0 128-103 230-231 230-105 0-210-66-230-207l0-46c0-4 10-48 13-58 42-106 138-150 217-150 46 0 100 15 145 50 33-34 66-67 100-97 2-3 9-4 12-4 14 0 25 8 25 25 0 6 1 9-6 16-30 35-64 65-95 96 35 45 50 99 50 145z m-51 0c0-100-82-180-180-180-100 0-179 82-179 180 0 99 80 179 179 179 101 0 180-80 180-179z m-98 24l-165 0c-18-7-18-12-18-24 0-12 3-21 19-25l164 0c13 0 20 18 20 25 0 10-7 24-20 24z"/>
<glyph glyph-name="folder-1" unicode="&#48;" d="M13 470c-9 0-13-4-13-13l0-402c0-9 4-13 13-13l486 0c9 0 13 4 13 13l0 328c0 8-4 13-13 13l-249 0-76 70c-2 3-5 4-8 4z m13-402l0 376 134 0 76-71c2-2 5-3 9-3l241 0 0-302z"/>
<glyph glyph-name="folder-2" unicode="&#49;" d="M13 470l153 0c3 0 6-1 8-4l76-70 249 0c9 0 13-5 13-13l0-328c0-9-4-13-13-13l-486 0c-9 0-13 4-13 13l0 402c0 9 4 13 13 13z m13-402l460 0 0 302-241 0c-4 0-7 1-9 3l-76 71-134 0z m287 196c0-13-5-25-13-35-8-10-19-17-31-20l0-27c0-9-5-13-13-13-9 0-13 4-13 13l0 39c0 9 4 13 13 13 8 0 16 3 22 8 6 6 9 13 9 22 0 8-3 15-9 22-6 6-14 9-22 9-9 0-16-3-22-9-6-7-9-14-9-22 0-9-5-13-13-13-9 0-13 4-13 13 0 15 5 28 17 40 11 11 24 17 40 17 15 0 28-6 40-17 11-12 17-25 17-40z m-38-134c0-9-4-13-13-13l-12 0c-9 0-13 4-13 13 0 8 4 13 13 13l12 0c9 0 13-5 13-13z"/>
<glyph glyph-name="folder-3" unicode="&#50;" d="M13 472c-9 0-13-5-13-13l0-406c0-9 4-13 13-13l486 0c9 0 13 4 13 13l0 331c0 9-4 13-13 13l-249 0-76 71c-2 3-5 4-8 4z m13-406l0 380 134 0 76-72c2-2 5-3 9-3l241 0 0-305z m194 242c-11-11-16-24-16-39l0-27-24 0c-9 0-13-5-13-14l0-115c0-8 4-13 13-13l152 0c8 0 13 5 13 13l0 115c0 9-5 14-13 14l-21 0 0 27c0 15-5 28-15 39-11 10-24 16-38 16-15 0-27-6-38-16z m99-93l0-89-126 0 0 89z m-88 27l0 27c0 7 3 14 8 20 5 5 12 8 19 8 7 0 13-3 18-8 5-6 8-13 8-20l0-27z m38-59c0 9-5 13-13 13-9 0-13-4-13-13l0-24c0-9 4-13 13-13 8 0 13 4 13 13z"/>
<glyph glyph-name="folder-4" unicode="&#51;" d="M13 472l153 0c3 0 6-1 8-4l76-71 249 0c9 0 13-4 13-13l0-331c0-9-4-13-13-13l-486 0c-9 0-13 4-13 13l0 406c0 8 4 13 13 13z m13-406l460 0 0 305-241 0c-4 0-7 1-9 3l-76 72-134 0z m220 222l0-120-44 44c-2 1-4 3-7 3-3 0-5-2-7-3-5-6-5-11 0-16l61-60c2-2 4-3 7-3 3 0 5 1 7 3l61 60c5 5 5 10 0 16-5 4-9 4-14 0l-44-44 0 120c0 7-3 10-10 10-7 0-10 0-10 0 0 0 0-3 0-10z"/>
<glyph glyph-name="folder-5" unicode="&#52;" d="M13 472c-9 0-13-5-13-13l0-406c0-9 4-13 13-13l486 0c9 0 13 4 13 13l0 331c0 9-4 13-13 13l-249 0-76 71c-2 3-5 4-8 4z m13-406l0 380 134 0 76-72c2-2 5-3 9-3l241 0 0-305z m220 77l0-10 10 0c7 0 10 3 10 10l0 120 44-43c5-5 9-5 14 0 5 5 5 10 0 15l-61 60c-2 2-4 3-7 3-3 0-5-1-7-3l-61-60c-5-5-5-10 0-15 2-2 4-3 7-3 3 0 5 1 7 3l44 43z"/>
<glyph glyph-name="folder-6" unicode="&#53;" d="M13 472c-9 0-13-5-13-13l0-406c0-9 4-13 13-13l486 0c9 0 13 4 13 13l0 331c0 9-4 13-13 13l-249 0-76 71c-2 3-5 4-8 4z m13-406l0 380 134 0 76-72c2-2 5-3 9-3l241 0 0-305z m148 225c-12-12-19-28-19-46 0-17 7-34 19-46l72-71c2-3 6-4 10-4 4 0 8 1 10 4l72 71c25 26 25 67 0 92-22 22-57 25-82 9-25 16-60 13-82-9z m143-21c14-13 14-36 0-50l-61-61-61 61c-7 7-11 16-11 25 0 10 4 19 11 25 7 7 16 11 25 11 9 0 19-4 26-11 5-5 15-5 20 0 14 14 37 14 51 0z"/>
<glyph glyph-name="video-1" unicode="&#54;" d="M314 160c0-22-18-40-40-40l-194 0c-22 0-40 18-40 40l0 192c0 22 18 40 40 40l194 0c22 0 40-18 40-40z m158 18c0-8-4-15-11-18-7-4-14-3-21 1l-86 74 0 41 86 74c7 4 14 5 21 1 7-3 11-10 11-18l0-55c0-3 0-98 0-100z m40 155c0 23-13 44-33 54-21 10-45 8-63-6l-1 0-61-53 0 24c0 44-36 80-80 80l-194 0c-44 0-80-36-80-80l0-192c0-44 36-80 80-80l194 0c44 0 80 36 80 80l0 23 61-52 1-1c11-8 23-12 36-12 9 0 18 2 27 6 20 10 33 30 33 53z"/>
<glyph glyph-name="video-2" unicode="&#55;" d="M314 160c0-22-18-40-40-40l-194 0c-22 0-40 18-40 40l0 192c0 22 18 40 40 40l194 0c22 0 40-18 40-40z m158 18c0-8-4-15-11-18-7-4-14-3-21 1l-86 74 0 41 86 74c7 4 14 5 21 1 7-3 11-10 11-18z m40 155c0 23-13 44-33 54-21 10-45 8-63-6l-1 0-61-53 0 24c0 44-36 80-80 80l-194 0c-44 0-80-36-80-80l0-192c0-44 36-80 80-80l194 0c44 0 80 36 80 80l0 23 61-52 1-1c11-8 23-12 36-12 9 0 18 2 27 6 20 10 33 30 33 53z m-259-58c-2 2-5 3-8 3l-48 0 0 50c0 3-1 5-3 8-2 2-5 3-8 3l-22 0c-3 0-6-1-8-3-2-3-3-5-3-8l0-50-48 0c-3 0-6-1-8-3-2-3-3-5-3-8l0-23c0-3 1-6 3-9 2-2 5-3 8-3l48 0 0-49c0-4 1-6 3-9 2-2 5-3 8-3l22 0c3 0 6 1 8 3 2 3 3 5 3 9l0 49 48 0c3 0 6 1 8 3 2 3 3 6 3 9l0 23c0 3-1 5-3 8z"/>
<glyph glyph-name="video-3" unicode="&#56;" d="M314 160c0-22-18-40-40-40l-194 0c-22 0-40 18-40 40l0 192c0 22 18 40 40 40l194 0c22 0 40-18 40-40z m158 18c0-8-4-15-11-18-7-4-14-3-21 1l-86 74 0 41 86 74c7 4 14 5 21 1 7-3 11-10 11-18z m40 155c0 23-13 44-33 54-21 10-45 8-63-6l-1 0-61-53 0 24c0 44-36 80-80 80l-194 0c-44 0-80-36-80-80l0-192c0-44 36-80 80-80l194 0c44 0 80 36 80 80l0 23 61-52 1-1c11-8 23-12 36-12 9 0 18 2 27 6 20 10 33 30 33 53z m-382-36c0-12 4-22 12-30 8-8 18-12 30-12 12 0 22 4 30 12 8 8 12 18 12 30 0 12-4 22-12 30-8 8-18 12-30 12-12 0-22-4-30-12-8-8-12-18-12-30z m126-105c0 13-10 23-29 30-19 8-37 12-55 12-17 0-36-4-55-12-19-7-29-17-29-30l0-21 168 0z"/>
<glyph glyph-name="video-4" unicode="&#57;" d="M394 48c0-14-11-24-24-24l-116 0c-13 0-24 10-24 24l0 115c0 13 11 23 24 23l116 0c13 0 24-10 24-23z m94 10c0-4-2-8-7-10-4-2-8-2-12 1l-51 44 0 24 51 44c4 3 8 3 12 1 5-2 7-6 7-11z m24 93c0 14-8 26-20 32-12 6-26 5-37-3l-1 0-36-32 0 15c0 26-22 47-48 47l-116 0c-27 0-48-21-48-47l0-115c0-27 21-48 48-48l116 0c26 0 48 21 48 48l0 13 36-31 1 0c6-5 13-7 21-7 6 0 11 1 16 3 12 6 20 18 20 32z m-343-29l-134 0c-6 0-9 3-9 9l0 307c0 6 3 9 9 9l56 0 0-26c0-9 4-13 13-13 9 0 13 4 13 13l0 26 78 0 0-26c0-9 4-13 13-13 9 0 13 4 13 13l0 26 78 0 0-26c0-9 5-13 13-13 9 0 13 4 13 13l0 26 56 0c6 0 9-3 9-9l0-192 4 0c8 0 15-2 22-5l0 197c0 10-3 18-9 24-8 7-16 11-26 11l-56 0 0 26c0 9-4 13-13 13-8 0-13-4-13-13l0-26-78 0 0 26c0 9-4 13-13 13-9 0-13-4-13-13l0-26-78 0 0 26c0 9-4 13-13 13-9 0-13-4-13-13l0-26-56 0c-10 0-18-4-24-11-8-6-11-14-11-24l0-307c0-10 3-18 11-26 6-6 14-9 24-9l134 0z m-78 234l0-39 52 0 0 39z m0-65l0-39 52 0 0 39z m0-65l0-39 52 0 0 39z m91 65l0-39 52 0 0 39z m0 65l0-39 52 0 0 39z m91-65l0-39 52 0 0 39z m0 65l0-39 52 0 0 39z"/>
<glyph glyph-name="video-5" unicode="&#33;" d="M4 66c-3 2-4 5-4 8l0 364c0 3 1 6 4 8 3 3 6 4 9 4l486 0c3 0 6-1 9-4 3-2 4-5 4-8l0-364c0-3-1-6-4-8-3-3-6-4-9-4l-486 0c-3 0-6 1-9 4z m21 359l0-261 300 0c5 20 19 30 41 30 11 0 21-4 30-12 8-9 12-19 12-30 0-11-4-21-12-30-9-8-19-12-30-12-22 0-36 10-41 30l-300 0 0-53 462 0 0 338z m341-291c5 0 9 2 12 6 3 3 5 7 5 12 0 5-2 9-5 12-3 4-7 6-12 6-5 0-10-2-13-5-3-3-5-8-5-13 0-5 2-10 5-13 3-3 8-5 13-5z m-143 126l0 93c0 5 2 8 6 11 5 2 9 2 13 0l81-47c4-3 6-6 6-10 0-5-2-8-6-11l-81-46c-1-1-4-2-7-2-3 0-5 1-6 2-4 2-6 5-6 10z m25 22l43 25-43 24z"/>
<glyph glyph-name="image-1" unicode="&#34;" d="M329 351c0 16 5 29 16 40 11 11 24 17 39 17 15 0 28-6 39-17 10-11 16-24 16-40 0-16-6-30-16-41-11-11-24-16-39-16-15 0-28 5-39 16-11 11-16 25-16 41z m174 123c6-7 9-15 9-23l0-390c0-9-3-17-9-23-6-7-14-10-23-10l-448 0c-9 0-17 3-23 10-6 6-9 14-9 23l0 390c0 8 3 16 9 23 6 6 14 10 23 10l448 0c9 0 17-4 23-10z m-28-351l0 309c-1 9-6 14-14 14l-410 0c-8 0-13-5-14-14l0-309 145 180c3 7 9 10 18 10 7 0 14-3 19-8l62-70 5-5c4-3 8-5 12-5 4 0 9 2 14 6l21 19c5 4 10 6 14 6 7 0 11-3 15-7z"/>
<glyph glyph-name="image-2" unicode="&#35;" d="M512 456l0-400-512 0 0 400z m-486-370l116 138 56-65 126 173 162-223 0 321-460 0z m447-4l-149 205-125-170-57 67-85-102z m-332 193c-15 0-27 5-38 16-11 10-16 23-16 38 0 14 5 27 16 38 11 11 23 16 38 16 15 0 28-5 39-16 10-11 15-24 15-38 0-15-5-28-16-38-11-11-23-16-38-16z m28 54c0 7-3 13-9 19-5 5-12 8-19 8-7 0-13-3-19-8-5-6-8-12-8-19 0-8 3-14 8-20 6-5 12-8 19-8 7 0 14 3 19 8 6 6 9 12 9 20z"/>
<glyph glyph-name="image-3" unicode="&#36;" d="M505 385c5-6 7-12 7-20l-16-312c-1-7-4-13-9-18-6-6-12-8-20-7l-376 19c-9 0-15 3-20 9-5 5-7 11-6 19l3 54-17-1c-8-1-13 1-18 5-5 4-8 10-9 17l-24 280c-1 6 1 11 6 16 4 6 10 8 16 9l338 29c7 0 12-1 17-5 5-5 9-10 10-16l5-65 95-4c7-1 13-4 18-9z m-416 20c5 5 12 8 20 8l250-13-2 36-1 0 0 1c-2 7-6 10-12 10l-298-26c-6 0-10-4-11-10l0-2 18-211 20 30 8 159c0 7 3 14 8 18z m385-63l0 1c-2 7-6 12-12 12l-66 3-34 2-233 11c-7 2-12-2-14-11l0-1-3-74-8-152 0-9 7 9 117 129c4 5 9 7 15 7 8-2 14-4 17-8l49-58 3-4c3-3 7-5 12-5 3 0 7 1 10 4l19 14c3 3 7 5 13 5 3 0 7-2 12-6l31-39 54-65z m-112-81c-8 8-12 18-12 29 0 11 4 21 12 29 8 9 17 13 28 13 11 0 20-4 28-13 8-8 12-18 12-29 0-11-4-21-12-29-8-8-17-12-28-12-11 0-20 4-28 12z"/>
<glyph glyph-name="word-1" unicode="&#37;" d="M288 432l211 0c7-1 12-5 13-12l0-327c0-3-1-6-4-9-3-3-6-4-9-4l-211 0 0-51c-3-9-8-13-16-13-3 0-19 3-47 9-101 18-173 32-216 41-1 0-2 1-5 4-3 3-4 5-4 6l0 360 6 9c2 1 7 3 16 5 4 1 10 2 18 4 8 1 13 2 14 2 135 27 208 40 218 40 3 0 7-1 10-4 4-2 6-5 6-8z m-32 29l-224-42 0-326 224-42z m33-61l0-31 144 0c4 0 8-2 11-5 3-3 5-7 5-11 0-9-5-14-14-17l-146 0 0-31 146 0c3 0 6-2 9-5 4-4 5-8 5-11 0-9-5-14-14-17l-146 0 0-32 146 0c3 0 6-2 9-6 4-3 5-7 5-10 0-9-5-14-14-17l-146 0 0-31 146 0c3 0 6-2 9-6 4-3 5-7 5-10 0-9-5-14-14-17l-146 0 0-31 191 0 0 288z m-67-86c-1-4-1-9-2-14-1-4-1-9-1-12-1-9-3-28-7-56-3-27-5-48-7-63-1-6-6-9-14-9-8 0-14 6-18 19-1 3-2 8-5 15l-4 9c-3 7-6 17-11 29-5 13-8 22-9 26-8-17-13-30-16-39-11-29-18-47-21-53-2-4-6-6-11-6-10 0-16 6-17 18-10 72-15 109-15 110 0 11 5 16 15 16 7 0 12-2 13-7 1-3 3-9 4-17 0-3 1-9 2-18 1-8 2-14 3-19l2-2c2 5 5 12 8 21l5 15c1 3 3 7 4 12 2 5 4 10 6 14 1 4 3 8 5 11 2 3 6 5 12 5 6 0 10-2 13-5 3-3 5-8 7-16 2-7 3-11 4-13 3-6 9-20 16-41 1 7 3 20 4 37 1 1 1 4 1 8 1 2 1 7 1 16 0 9 1 16 4 22 3 6 8 9 15 9 10 0 15-5 15-16 0-1 0-3-1-6z"/>
<glyph glyph-name="powerpoint-1" unicode="&#38;" d="M288 432l211 0c9 0 13-4 13-12l0-327c0-9-4-14-13-13l-211 0 0-51c-5-9-10-13-16-13-3 0-19 3-47 9-101 18-173 32-216 41-1 0-2 1-5 4-3 3-4 5-4 6l0 360 6 9c2 1 7 3 16 5 4 1 10 2 18 4 8 1 13 2 14 2 135 27 208 40 218 40 3 0 7-1 10-4 4-2 6-5 6-8z m-33 29l-223-42 0-326 223-42z m34-61l0-102c3 23 12 41 27 53 16 12 33 18 52 18 22 0 41-8 57-23 16-15 24-34 24-57 0-22-8-41-24-57-16-17-35-25-57-25-18 0-35 6-50 18-15 12-25 29-29 51l0-100 146 0c3 0 6-2 9-6 4-3 5-7 5-10 0-9-5-14-14-17l-146 0 0-31 191 0 0 288z m63-67c-21-7-31-22-31-44 0-13 4-24 13-34 9-10 20-15 34-15 21 0 36 11 45 32l-48 0c-2 0-5 2-8 6-3 5-5 8-5 10z m50-11c-7 7-12 10-17 11l0-28 28 0c-1 5-4 10-11 17z m-194-8c10-12 15-26 15-41 0-13-4-26-12-38-8-12-19-20-34-24-6-2-10-3-11-3l-39 0 0-51c-3-9-8-13-16-13-3 0-6 1-9 4-4 3-6 5-6 8l0 168c1 3 2 5 6 8 2 4 5 5 8 4l54 0c19-1 33-9 44-22z m-80-10l0-64 33 0c8 0 15 3 21 10 6 8 9 15 9 23 0 7-3 14-8 21-5 6-12 9-20 10z"/>
<glyph glyph-name="excel-1" unicode="&#39;" d="M288 432l211 0c9 0 13-4 13-12l0-327c0-9-4-13-13-13l-211 0 0-51c-3-9-9-13-16-13-3 0-19 3-47 9-101 18-173 32-216 41-1 0-2 1-5 4-3 3-4 5-4 6l0 360 6 9c2 1 7 3 16 5 4 1 10 2 18 4 8 1 13 2 14 2 135 27 208 40 218 40 3 0 7-1 10-4 4-2 6-5 6-8z m-33 29l-223-42 0-326 223-42z m34-61l0-31 48 0c4 0 8-2 11-5 3-3 5-7 5-11 0-9-5-14-14-17l-50 0 0-31 50 0c3 0 6-2 9-5 4-4 5-8 5-11 0-9-5-14-14-17l-50 0 0-32 50 0c3 0 6-2 9-6 4-3 5-7 5-10 0-9-5-14-14-17l-50 0 0-31 50 0c3 0 6-2 9-6 4-3 5-7 5-10 0-9-5-14-14-17l-50 0 0-31 191 0 0 288z m-120-139c0-1 3-5 9-11 6-8 13-16 22-26 9-11 15-19 20-24 2-2 3-5 3-8 0-5-2-8-5-12-3-3-7-4-11-4-3 0-9 3-16 10-7 8-16 17-26 29-10 12-15 18-16 19-2-2-7-8-15-18-7-11-15-20-22-28-7-8-13-12-16-12-11 0-16 5-16 16 0 5 7 16 21 34 14 19 23 30 27 34-32 32-48 52-48 61 0 10 5 15 15 15 3 0 7-2 13-7 5-5 10-10 15-15 5-5 10-11 15-18 5-7 8-10 9-11 1 1 5 6 11 14 6 8 11 14 14 18 2 2 5 6 10 13 4 7 8 12 12 16 4 4 8 6 13 6 5 0 8-2 11-4 4-4 5-7 5-11 0-4-9-17-27-40-18-23-27-35-27-36z m269 77c-3 0-5-1-8-2-2 0-5 0-8 0l-6 1-6-1c-5 0-8 0-10 0-1 1-4 2-6 2-4 1-6 3-7 6-1 2-2 5-2 9 0 4 1 7 3 9 1 3 3 4 6 6 3 0 5 1 8 1 2 0 5 0 8-1 3 0 5 0 6 0 1 0 3 0 7 0 4 1 7 1 9 0 2 0 4 0 8-1 2-1 5-2 6-5 1-2 2-5 2-9 0-4-1-7-2-9-2-3-4-5-8-6z m0-64c-3 0-5-1-8-2-2 0-5 0-8 0l-6 1-6-1c-5 0-8 0-10 0-1 1-4 2-6 2-4 1-6 3-7 6-1 2-2 5-2 9 0 4 1 7 3 9 1 3 3 4 6 5 4 1 6 1 8 1 2 1 5 1 8 0l6 0c1 0 3 0 7 0 4 1 7 1 9 0 2 0 4 0 8-1 2-1 5-2 6-5 1-2 2-5 2-9 0-4-1-7-2-9-2-3-4-5-8-6z m0-64c-3-2-5-2-8-2-2-1-5-1-8 0l-12 0c-5-1-8-1-10 0-1 0-4 0-6 2-4 0-6 2-7 4-1 3-2 6-2 10 0 4 1 7 3 10 1 2 3 4 6 4 3 1 5 2 8 2 2 0 5 0 8 0 3-1 5-1 6-1 1 0 3 0 7 1 4 0 7 0 9 0 2-1 4-1 8-2 2-1 5-2 6-4 1-3 2-6 2-10 0-4-1-7-2-10-2-2-4-4-8-4z m0-64c-3-2-5-2-8-2-2-1-5-1-8 0l-12 0c-5-1-8-1-10 0-1 0-4 0-6 2-4 0-6 2-7 4-1 3-2 6-2 10 0 4 1 7 3 10 1 2 3 4 6 4 3 1 5 2 8 2 2 0 5 0 8 0 3-1 5-1 6-1 1 0 3 0 7 1 4 0 7 0 9 0 2-1 4-1 8-2 2-1 5-2 6-4 1-3 2-6 2-10 0-4-1-7-2-10-2-2-4-4-8-4z"/>
<glyph glyph-name="pdf-1" unicode="&#40;" d="M312 193c-53-10-90-24-142-46 15 32 45 111 59 164 20-41 44-81 83-118m-76 170c-10 34-23 110-2 135 41-25 16-82 2-135m24 121c-6 19-19 29-30 28-13-2-27-10-33-23-16-37 18-145 23-163-33-101-143-300-197-313-1 13 6 51 77 98 4 5 8 9 10 13-60-31-139-80-92-116 3-2 7-4 11-6 36-13 87 32 137 134 56 19 101 33 165 43 69-49 116-59 148-46 9 3 23 15 26 30-25-33-86-10-134 21 45 5 91 8 110 1 26-8 25-21 24-22 2 7 5 18 0 27-21 36-119 15-154 11-56 35-94 97-110 142 15 57 30 99 19 141"/>
<glyph glyph-name="youtube-1" unicode="&#41;" d="M372 439l-149 3-85-3c-41-6-106 5-129-61-3-7-3-17-5-25-1-13-3-27-4-40l0-115c0-20 5-51 11-70 9-31 46-49 70-50 10 0 19-2 28-3 11 0 22-2 32-3l78-2 107 0 47 2c40 8 102-6 127 56 10 24 9 49 12 72l0 114c0 10-9 60-9 60-1 6-4 14-8 19-16 30-45 39-64 41l-28 3c-10 0-21 1-31 2z m-2-40c10-1 21-1 32-2 11-2 23-3 36-6 6-1 19-8 23-19 1-2 3-6 4-11 4-15 7-45 7-48l0-112c-3-20-2-39-9-58-14-37-66-23-92-31l-46-2-163 1-39 3c-16 1-33 4-49 7-7 1-23 12-25 20-1 4-3 10-4 14-2 14-5 42-5 44l0 113 3 30c1 5 2 11 2 15 5 50 68 34 95 42l84 3z m-26-143l-139 81 0-163z"/>
<glyph glyph-name="zip-1" unicode="&#42;" d="M271 512l-156 0c-22 1-51-27-51-49l0-414c0-20 26-49 49-49l285 0c21 0 50 27 50 50l0 288c0 6-9 25-12 27-44 46-90 92-135 136-9 9-21 10-30 11z m-16-48l0-93c-2-18 29-51 51-51l94 0 0-266c-1-3-3-6-6-6l-129 0 0 63 35 0c15 7 21 15 21 25 0 8-10 24-21 24l-35 0 0 31 35 0c15 7 21 15 21 25 0 9-10 24-21 24l-35 0 0 62c-7 14-16 19-26 19-8 0-24-9-24-20l0-20-36 0c-15-3-20-15-20-25 0-9 9-25 20-25l36 0 0-31-36 0c-15-3-20-15-20-24 0-9 9-25 20-25l36 0 0-31-36 0c-15-3-20-15-20-24 0-9 9-25 20-25l36 0 0-23-98 0c-2 1-5 3-5 5l0 406c0 1 4 5 7 5z m111-95l-56 0c-3 2-5 5-5 7l0 54z"/>
<glyph glyph-name="headphone-1" unicode="&#43;" d="M491 294c-16 144-129 218-235 218-109 0-224-78-238-222l0-99c-11-18-17-36-18-54l0-20c0-10 6-32 9-39 33-67 79-78 128-78 14 0 35-3 41 20l0 217c0 5-9 16-13 17-9 3-23 3-31 3-22 0-40-1-66-16l0 44c0 3 3 29 7 41 29 95 112 136 181 136 86 0 178-63 188-176l0-45c-18 10-52 16-72 16-12 0-35-1-38-20l0-218c0-3 8-14 13-16 8-4 17-3 27-3 22 0 22-2 51 7 64 21 87 75 87 121 0 23-6 43-20 67z m-364-89l0-154-6 0c-49 6-70 43-70 77 0 34 22 71 70 77z m263 0c49-6 71-43 71-77 0-27-19-67-58-74-4 0-11-3-14-3l-4 0 0 154z"/>
<glyph glyph-name="path-1" unicode="&#44;" d="M205 447c-13 48-49 65-82 65-36 0-74-21-83-72l0-23c0-2 2-13 4-18 15-38 51-54 79-54 33 0 68 19 83 65l114 0c22 0 75-21 77-57l0-22c-6-42-57-57-86-59l-124 0c-28 0-99-29-104-73 0-5-3-11-4-16l0-28c0-3 2-9 2-13 10-53 79-75 116-77l108 0c17-46 47-65 82-65 44 0 85 35 85 84 0 46-38 83-84 83-37 0-69-20-84-67l-106 0c-4 0-14 2-18 3-44 8-66 31-66 66 0 41 28 61 76 69l122 0c55 0 120 33 120 104 0 57-37 93-109 103l-116 0z m-35-18c0-26-21-47-47-47-30 0-47 24-47 48 0 26 20 46 47 46 27 0 47-20 47-47z m265-344c0-28-20-48-47-48-27 0-47 20-47 47 0 27 20 47 47 47 29 0 47-22 47-46z"/>
<glyph glyph-name="path-2" unicode="&#45;" d="M256 160l-32 0 0 352 32 0z m160 288l96 64-224 0 0-128 224 0z m-64-96l-64-32 0-36 48 24 0-184-160-80 0 184 16 8 0 36-32-16-160 96 0-256 160-96 192 96 160-96 0 256z m-208-305l-112 67 0 181 112-66z m336 10l-112 66 0 182 112-67z"/>
<glyph glyph-name="tick-2" unicode="&#46;" d="M306 495c13-3 31-8 45-17 7-6 6-12 6-16 0-14-10-22-22-22-17 0-38 19-91 19-112 0-201-93-201-202 0-113 91-203 202-203 93 0 188 69 201 191l0 37c5 14 13 17 22 17 24 0 22-24 22-36 0-137-106-253-246-253-84 0-187 48-230 162-2 7-14 46-14 60l0 50c23 149 134 220 244 220 26 0 25 2 62-7z m206-36c0-17-22-29-38-48-12-12-27-26-38-38-60-59-120-120-179-179-5-3-10-4-13-4-5 0-13 3-17 8-23 24-48 47-70 72-2 3-1 7-1 9 0 13 9 22 21 22 17 0 59-49 67-58 14 13 27 28 41 40 64 64 126 132 192 194 6 6 7 3 13 3 13 0 22-10 22-21z"/>
<glyph glyph-name="tick-3" unicode="&#47;" d="M0 256c0 71 25 131 75 181 50 50 110 75 181 75 71 0 131-25 181-75 50-50 75-110 75-181 0-71-25-131-75-181-50-50-110-75-181-75-71 0-131 25-181 75-50 50-75 110-75 181z m27 0c0-64 22-118 67-162 44-45 98-67 162-67 63 0 117 22 162 67 44 44 67 98 67 162 0 63-23 117-67 162-45 44-99 67-162 67-64 0-118-23-162-67-45-45-67-99-67-162z m119-13c-7 6-7 12 0 19 6 6 12 6 18 0l56-56 128 128c6 6 12 6 18 0 7-7 7-13 0-19l-137-137c-3-2-6-4-9-4-3 0-6 2-10 4z"/>
<glyph glyph-name="tick-4" unicode="&#58;" d="M42 133c-5 5-8 11-8 18 0 7 3 14 8 19 5 5 11 8 18 8 7 0 13-3 18-8l108-108 248 248c5 5 11 8 18 8 7 0 13-3 18-8 5-5 8-11 8-18 0-7-3-13-8-18l-266-266c-5-5-11-8-18-8-7 0-14 3-19 8z m0 195c-5 5-8 11-8 18 0 7 3 13 8 18 5 5 11 8 18 8 7 0 13-3 18-8l108-108 248 248c5 5 11 8 18 8 7 0 13-3 18-8 5-5 8-10 8-18 0-7-3-13-8-18l-266-266c-5-5-11-8-18-8-7 0-14 3-19 8z"/>
<glyph glyph-name="tick-5" unicode="&#59;" d="M204 94l89-88c3-4 8-6 13-6 5 0 9 2 13 6l187 187c4 4 6 8 6 13 0 4-2 9-6 12-3 4-8 6-12 6-5 0-9-2-13-6l-175-174-76 76c-4 3-8 5-13 5-5 0-9-2-13-5-3-4-5-8-5-13 0-5 2-9 5-13z m117 57l-142 361-36 0-143-361 43 0 44 115 145 0 46-115z m-219 151l43 112c7 19 12 36 15 52 6-20 12-38 17-52l42-112z"/>
<glyph glyph-name="cross-2" unicode="&#60;" d="M512 258c0 137-109 254-258 254-137 0-254-105-254-254 0-137 105-258 254-258 137 0 258 109 258 258z m-32 0c0-137-109-226-226-226-137 0-222 109-222 226 0 125 97 222 222 222 137 0 226-105 226-222z m-226 20c-24 24-69 73-77 73-12 0-16-4-16-16 0-8 53-57 73-81-24-24-73-69-73-77 0-12 4-16 12-16 12 0 57 49 85 73 24-24 65-73 77-73 8 0 8 4 12 4 0 0 4 4 4 12 0 12-53 57-73 81 24 24 73 69 73 81 0 8-4 12-16 12-8 0-53-49-81-73z"/>
<glyph glyph-name="block-1" unicode="&#61;" d="M512 256c0 139-113 256-256 256-117 0-242-82-256-240l0-32c0-13 10-56 12-64 44-125 152-176 244-176 138 0 256 113 256 256z m-32 0c0-48-16-99-54-146l-316 315c47 41 97 55 146 55 125 0 224-101 224-224z m-78-169c-47-40-98-55-146-55-82 0-180 47-215 159-3 11-9 37-9 51l0 28c3 44 17 88 54 132z"/>
<glyph glyph-name="info-1" unicode="&#62;" d="M51 408c55 74 136 104 205 104 137 0 256-114 256-257 0-142-116-255-256-255-79 0-163 36-213 113l0 0c-27 41-43 89-43 142 0 57 19 110 51 153z m61-1c-5-4-10-10-15-15 5 5 10 11 15 15z m353-152c0 119-96 210-209 210-48 0-102-18-144-57l0-1c-5-4-10-10-15-15l0 0 0 0c-10-12-18-24-26-38l0 0c-15-29-24-63-24-99 0-40 11-78 31-110l1 0c39-65 108-99 177-99 119 0 209 96 209 209z m-186-100c0-11-17-15-23-15-10 0-13 0-22 15l0 106c0 11 15 17 22 17 9 0 16-2 23-18z m0 194c0-11-8-23-23-23-12 0-22 10-22 23 0 10 7 23 22 23 12 0 23-10 23-23z"/>
<glyph glyph-name="help-1" unicode="&#63;" d="M0 256c0 71 25 131 75 181 50 50 110 75 181 75 71 0 131-25 181-75 50-50 75-110 75-181 0-71-25-131-75-181-50-50-110-75-181-75-71 0-131 25-181 75-50 50-75 110-75 181z m27 0c0-64 22-118 67-162 44-45 98-67 162-67 63 0 117 22 162 67 44 44 67 98 67 162 0 63-23 117-67 162-45 44-99 67-162 67-64 0-118-23-162-67-45-45-67-99-67-162z m251-105c0-4-2-8-5-11-3-3-6-4-11-4l-12 0c-5 0-9 1-11 4-3 3-5 7-5 11 0 10 6 15 16 15l12 0c11 0 16-5 16-15z m44 158c0-15-5-29-14-41-10-12-23-20-37-23l0-32c0-5-2-9-4-12-3-3-7-4-11-4-4 0-8 1-11 4-3 3-4 7-4 12l0 45c0 10 5 15 15 15 10 0 18 3 25 11 7 7 11 16 11 25 0 10-4 19-11 26-7 7-15 11-25 11-10 0-19-4-26-11-7-7-10-16-10-26 0-4-2-8-4-10-4-3-7-5-11-5-4 0-8 2-10 5-3 2-5 6-5 10 0 19 6 34 19 47 13 13 29 20 47 20 18 0 33-7 47-20 13-13 19-28 19-47z"/>
<glyph glyph-name="help-2" unicode="&#64;" d="M512 256c0 142-113 256-256 256-120 0-240-82-256-240l0-256c0-6 9-15 16-16l255 0c16 0 61 12 71 15 120 42 170 152 170 241z m-40 0c0-74-41-167-143-203-9-3-44-13-60-13l-229 0 0 230c13 134 117 202 216 202 122 0 216-98 216-216z m-145 59c0 44-45 57-75 57-20 0-67-9-67-45 0-9 4-21 19-21 19 0 10 27 47 27 11 0 33-3 33-23 0-33-51-34-55-83l0-21c0-11 10-13 18-13 19 0 21 6 22 31 0 6 3 12 7 15 32 31 51 50 51 76z m-52-173c0 13-10 25-28 25-15 0-25-10-25-25 0-11 7-27 25-27 13 0 28 10 28 27z"/>
<glyph glyph-name="help-3" unicode="&#91;" d="M416 512l-322 0c-22 1-53-27-54-49l0-414c0-10 1-45 52-49l326 0c21 0 50 25 53 50l0 8c-17-11-35-17-51-19l-325 0c-11 0-16 15-16 21 0 8 1 15 16 20l323 0c27 0 55 36 54 60l0 313c0 26-22 56-56 59z m-3-40c4 0 18-7 18-14l0-323c-1-5-10-15-16-15l-323 0-12-3 0 341c0 6 10 15 17 14z m-86-127c0 39-32 71-72 71-30 0-63-18-72-61l0-11 39 0c-1 22 19 33 33 33 14 0 33-10 33-31 0-33-55-47-53-94l40 0c0 4 0 9 2 11 22 25 50 46 50 82z m-52-124l-39 0 0-39 39 0z"/>
<glyph glyph-name="profile-1" unicode="&#93;" d="M0 256c0-140 115-254 256-254 141 0 256 114 256 254 0 140-115 254-256 254-141 0-256-114-256-254z m129-185c0 1 0 2 1 3l0 44c0 12 16 38 31 42 7 3 15 4 22 5l145 0c24 0 49-17 54-46l0-46c0-1 1-1 1-2-36-24-80-39-127-39-47 0-91 15-127 39z m208 129l-163 0c-30 0-75-37-78-69 0-3-1-8-2-11l0-19c-39 40-63 95-63 155 0 123 101 224 225 224 124 0 225-101 225-224 0-60-24-115-63-155l0 19c0 28-34 74-69 78-5 0-8 1-12 2z m9 126c0 49-41 89-90 89-38 0-79-22-89-76l0-27c0-1 2-12 4-17 14-42 53-58 85-58 48 0 90 37 90 89z m-36 1c0-32-26-54-54-54-32 0-54 25-54 54 0 30 25 52 54 52 30 0 54-24 54-52z"/>
<glyph glyph-name="profile-2" unicode="&#94;" d="M133 384c0 36 12 66 36 91 24 25 53 37 87 37 34 0 63-12 87-37 24-25 36-55 36-91 0-36-12-66-36-91-24-25-53-37-87-37-34 0-63 12-87 37-24 25-36 55-36 91z m369-320l0-64-492 0 0 64c0 38 28 69 84 92 57 24 111 36 162 36 51 0 105-12 161-36 57-23 85-54 85-92z"/>
<glyph glyph-name="profile-3" unicode="&#95;" d="M299 302c-14 13-20 29-20 48 0 19 6 35 20 48 14 13 30 20 49 20 20 0 37-7 51-20 13-13 21-29 21-48 0-19-8-35-21-48-14-13-31-19-51-19-19 0-35 6-49 19z m-186 0c-14 13-21 29-21 48 0 19 7 35 21 48 13 13 30 20 51 20 18 0 35-7 48-20 14-13 21-29 21-48 0-19-7-35-21-48-13-13-30-19-48-19-21 0-38 6-51 19z m216-147l0-61-329 0 0 61c0 24 18 43 56 57 37 14 73 21 108 21 34 0 70-7 108-21 38-14 57-33 57-57z m130 50c35-11 53-27 53-50l0-61-146 0 0 61c0 15-3 27-8 36-5 9-15 18-29 29 5 0 12 1 19 1 39 0 75-6 111-16z"/>
<glyph glyph-name="profile-4" unicode="&#96;" d="M295 512l-79 0c-25-2-27-43-42-62-7-9-15-11-23-16-8-5-16-10-25-11l-52 5c-7 0-12 1-19-8-4-5-43-68-43-79 0-9 9-20 15-29 8-10 17-23 23-33l0-45c-3-7-9-14-13-20-5-7-25-30-25-42 0-9 40-77 47-83 4-4 10-6 15-5l52 5c11 0 45-20 48-27 9-16 16-35 25-52 3-6 10-6 15-10l83 0c16 0 20 22 25 30 4 7 7 14 9 20 3 6 4 14 12 18 12 8 30 21 43 21l52-5c6 0 15 2 19 9 1 2 43 67 43 79 0 11-37 58-37 60-2 8-1 21-1 24 0 3-1 17 1 24 1 7 37 46 37 60 0 10-42 78-47 84-5 5-10 5-15 4l-52-5c-10 0-46 21-50 29-8 16-15 32-22 47-3 8-12 13-19 13z m-13-42c6-3 7-14 10-19 5-8 8-18 13-27 5-10 60-42 74-42l42 4c4 0 7 0 10-2 1 0 23-35 23-42 0-7-32-43-32-54l0-63c1-4 1-8 4-12 2-3 28-34 28-43 0-6-22-40-23-41-3-2-7-3-10-3-2 0-16 2-23 3-9 1-9 12-12 17-3 7-6 16-11 23-3 7-8 13-13 18-5 7-11 13-17 18-6 4-19 11-19 17 0 2 8 11 11 16 9 13 16 32 18 44 0 4 1 12 1 14 0 55-47 99-100 99-58 0-99-46-99-99 0-44 29-67 29-74 0-3-2-5-4-6-26-16-48-45-56-68-2-4-3-16-9-18-8-3-24-4-26-4-3 0-6 0-8 2-3 1-25 37-25 42 0 7 25 38 32 52l0 69c-2 3-4 9-8 13 0 1-24 32-24 38 0 3 5 12 8 18 4 7 8 19 17 25 1 1 5 1 8 1l42-4c19 3 40 20 60 30 18 9 20 30 28 43 3 5 4 12 9 15 4 3 23 2 26 2 2 0 21 1 26-2z m33-174c0-34-29-59-59-59-21 0-44 11-55 38-1 4-3 10-3 12l0 18c7 34 34 49 58 49 33 0 59-28 59-58z m26-150c4-6 9-19 9-22 0-9-14-13-22-18-7-4-16-7-21-15-10-14-14-35-25-48-5-6-18-3-26-3-9 0-21-3-26 3-11 12-15 30-23 44-3 6-9 11-14 14-1 0-31 14-31 23 0 13 19 40 32 50 10 9 25 17 38 19 7 2 21 2 24 2 32 0 60-10 85-49z"/>
<glyph glyph-name="profile-5" unicode="&#123;" d="M324 485c-21 9-47 27-69 27-20 0-37-15-61-26-13-6-26-13-39-18-17-7-35-13-50-17-20-6-42-7-61-17-30-16-40-49-40-71l0-47c0-19 7-59 11-75 5-18 12-36 20-56 21-61 104-137 163-164 23-11 37-21 57-21 41 0 127 60 158 93 47 50 72 101 83 148 8 33 12 67 12 99 0 20-1 42-9 60-18 47-80 44-123 62-17 7-35 16-52 23z m34-72c23-9 52-17 79-22 21-3 19-36 19-50 0-63-13-130-63-192-44 29-94 29-136 29-30 0-60 1-88-7-11-3-25-6-34-13-7-2-13-9-16-9-3 0-9 11-12 14-21 30-35 65-42 93-5 18-9 54-9 56l0 57c2 22 29 25 43 27 9 1 20 5 29 8 8 2 19 6 27 8 5 1 13 5 19 7 25 13 79 41 83 41 2 0 67-33 101-47z m-71-289c21-2 48-2 68-14-12-10-26-20-37-27-6-4-50-31-63-31-19 0-94 54-98 58 20 11 45 13 68 14z m72 184c0 56-44 103-104 103-42 0-92-27-102-89l0-28c0-3 4-17 6-25 17-45 63-65 96-65 57 0 104 45 104 104z m-51-1c0-29-26-51-53-51-30 0-51 26-51 52 0 28 25 50 51 50 31 0 53-24 53-51z"/>
<glyph glyph-name="profile-6" unicode="&#124;" d="M345 380c0 48-39 88-90 88-39 0-80-25-88-79l0-18c0-2 2-11 3-16 13-44 53-64 85-64 50 0 90 40 90 89z m-30 0c0-33-26-59-60-59-35 0-58 29-58 59 0 32 25 58 58 58 34 0 60-26 60-58z m-149-60c0 37-30 65-67 65-35 0-66-28-66-65 0-35 28-68 66-68 35 0 67 30 67 68z m-30 0c0-22-20-37-37-37-22 0-36 20-36 37 0 21 17 35 36 35 22 0 37-17 37-35z m343 0c0 34-29 65-67 65-35 0-66-26-66-65 0-35 28-68 66-68 35 0 67 30 67 68z m-30 0c0-22-20-37-37-37-22 0-36 20-36 37 0 21 17 35 36 35 22 0 37-17 37-35z m-141-38l-105 0c-20-1-47-16-58-40 0-1 1-2-2-2-2 0-9 2-15 3l-60 0c-29 0-67-32-68-67l0-92c0-16 19-37 37-40l437 0c15 0 39 24 38 41l0 91c0 27-33 66-69 67l-60 0c-3 0-12-3-15-3-1 0-10 26-44 39-5 2-10 2-16 3z m-3-31c18 1 40-23 40-37l0-140-178 0 0 140c-1 17 23 38 39 37z m-169-38l0-139-96 0c-4 3-10 9-10 11l0 88c0 21 26 42 44 40z m346-40l0-87c-2-2-7-12-11-12l-95 0 0 139 61 0c19 0 45-16 45-40z"/>
<glyph glyph-name="profile-7" unicode="&#125;" d="M340 365c0 81-63 147-145 147-83 0-147-66-147-147 0-79 64-145 147-145 80 0 145 65 145 145z m-48 2c0-58-47-99-98-99-30 0-73 18-89 57-3 9-8 28-8 30l0 21c12 59 53 87 98 87 52 0 97-44 97-96z m171-38c0 43-23 99-83 123l-12-44c21-13 45-44 47-66l0-26c-3-30-44-71-74-72l0-48 5 0c3 0 18 4 26 7 66 25 91 79 91 126z m-82-276c-29 102-115 141-187 141-89 0-176-57-194-176l0-18 47 0c2 93 78 147 148 147 68 0 145-54 146-147l48 0 0 13c0 3-4 28-8 40z m131-46c0 58-44 140-115 169l-19-43c56-23 88-89 86-133l48 0z"/>
<glyph glyph-name="profile-8" unicode="&#126;" d="M412 406c-33 81-99 106-155 106-80 0-158-49-170-156l0-26c0-21 16-61 26-77 8-14 26-29 40-43 8-8 11-18 13-25l0-32c-4-3-15-9-15-15l0-21c0-2 4-5 4-7 0-3-3-6-4-8l0-20c0-4 9-13 15-14 3-1 8-1 12-2-6-12 2-37 20-35l32 0c-3-23 9-31 25-31 18 0 25 8 26 31l31 0c18 0 23 20 22 36 22 1 26 9 26 25 0 2 0 6-1 9 0 3-3 6-3 8 0 3 3 6 3 9 1 3 1 7 1 9 0 11 0 18-15 26l0 32c0 18 28 37 41 53 17 22 38 63 38 89 0 3-2 8-7 8-10 0-9-15-10-18-6-28-17-56-44-84-24 9-49 19-73 29-1 1-1 4-1 7 0 2-1 5 0 6 4 6 10 11 13 16 3 5 5 11 6 16l3 3c3 0 6 3 10 5 6 4 10 13 10 19 0 4-1 9-6 16l0 29c0 3-3 13-5 17-13 32-41 44-65 44-33 0-67-21-71-67l0-25c-6-7-5-9-5-14 0-6 1-14 11-20 3-3 9-3 10-6 4-5 4-13 8-19 3-5 8-9 12-14 2-1 2-4 2-7 0-2 0-5-2-6-15-7-31-12-45-18-10-3-18-7-26-12-34 32-48 77-48 112 0 82 66 155 154 155 67 0 139-46 154-138 0-3 7-5 8-5 4 0 7 3 7 7 0 10-9 39-12 43z m-143 18c4-1 9-3 13-5 13-5 23-23 26-36 1-4 2-11 2-13l0-11c0 5-19 28-27 28-3 0-38-20-53-20l-20 0c-4-2-8-5-11-8l0 13c3 37 29 53 56 53 2 0 9 1 14-1z m25-67l0-46c-9-24-22-32-39-32-22 0-40 17-40 37l0 35c12-1 30 2 44 7 6 2 20 10 23 10 2 0 8-7 12-11z m22-23c0-2-3-7-6-8l0 16c3-1 6-5 6-8z m-117-9c-3 3-5 6-5 9 0 2 0 6 5 7z m86-78c-6-5-19-15-19-22 0-6 5-8 7-8 10 0 20 17 28 24l48-19c-8-6-19-26-19-36l0-32-149 0 0 32c-2 10-8 26-19 36l47 19c8-6 19-25 28-25 5 0 8 6 8 8 0 7-17 19-20 23 8 2 12 10 12 18 7-1 16-2 18-2 7 0 12 0 19 3-2-4 2-18 11-19z m52-109c9 2 8-5 8-11 0-2 1-10-5-10l-170 0c-4 3-4 7-4 10 0 5-1 11 6 11z m5-37c2-2 3-7 3-9 0-4 0-6-3-10l-173 0c-3 3-3 7-3 10 0 3-1 6 2 9z m-30-35c8 0 7-6 7-10 0-3 0-6-3-9l-121 0c-4 3-3 6-3 9 0 4-1 10 6 10z m-46-36l0-7c-2-7-4-8-10-8-3 0-11 0-11 6l0 9z m-189 391c-3 3-25 24-32 24-3 0-6 0-6-6l0-4c1-2 28-26 33-26 4 0 7 3 7 8 0 2-1 4-2 4z m395 18c0 3-2 6-7 6-2 0-5 0-6-2-6-4-27-19-27-27 0-1 0-7 6-7 2 0 34 25 34 30z m-411-93c0 8-17 6-23 6l-19 0c-4-1-3-3-3-6 0-10 14-8 22-8 4 0 23-2 23 8z m431 6l-36 0c-4 0-6-2-6-6 0-10 16-8 23-8 1 0 23-2 23 8 0 2-2 4-4 6z m-413-76c0 3-2 6-7 6-4 0-33-22-33-28 0-2 0-8 6-8 2 0 34 25 34 30z m391-18c-3 3-25 24-32 24-3 0-6 0-6-6l0-4c1-2 30-26 34-26 2 0 6 3 6 8 0 2-1 4-2 4z"/>
<glyph glyph-name="profile-9" unicode="&#92;" d="M431 444l-351 0c-6-1-12-2-16-2-32-4-66-51-64-82l0-210c0-33 30-80 78-82l354 0c34 0 79 36 80 85l0 207c0 38-31 82-81 84z m-8-34c17 4 54-18 54-43l0-221c-3-27-30-44-52-44l-339 0c-18-1-51 20-51 43l0 222c-1 23 33 48 53 43z m-184-103c0 37-30 68-68 68-38 0-69-28-69-68 0-35 29-67 68-67 37 0 69 29 69 67z m-35 0c0-20-17-33-34-33-20 0-33 15-33 33 0 18 13 34 33 34 20 0 34-16 34-34z m222 0l-136 0 0-33 136 0z m-58-69l-78 0 0-33 78 0z m-118-73c-11 40-51 57-79 57-39 0-81-29-85-79l0-6 33 0c0 33 26 51 51 51 25 0 51-18 53-51l32 0 0 8c0 3-3 14-5 20z"/>
<glyph glyph-name="profile-10" unicode="&#57344;" d="M432 462l-432 0 0-342 322 0 0-41c0-12 14-28 28-29l133 0c12 0 28 15 29 28l0 126c0 20-30 30-40 26l0 42c0 18-20 43-40 48z m-30-30l0-112c-25-3-41-33-41-52l0-37c-16 4-40-11-40-29l0-51-291 0 0 281z m40-163l0-38-49 0 0 42c6 14 14 18 24 18 12 0 25-9 25-22z m40-69l0-120-129 0 0 120z m-292 147c0 29-25 55-55 55-31 0-55-26-55-55 0-3 1-14 4-21 2-6 7-12 10-17-25-16-32-38-34-59l0-59 155 0 0 59c0 18-17 50-35 59-1 0-3 2-3 3 7 7 13 26 13 35z m-30 0c0-14-13-25-26-25-14 0-24 13-24 25 0 14 10 24 25 24 14 0 25-10 25-24z m25-100l0-26-95 0 0 27c4 34 27 44 50 44 20 0 45-22 45-45z m186 124l-130 0 0-29 130 0z m-40-65l-90 0 0-29 90 0z m-40-66l-50 0 0-29 50 0z m141-89l-29 0 0-29 29 0z"/>
<glyph glyph-name="hand-1" unicode="&#57345;" d="M95 98c0 6-3 10-7 14-3 3-8 5-14 5-6 0-10-2-14-5-4-4-6-8-6-14 0-5 2-10 6-14 4-4 8-5 14-5 6 0 11 1 14 5 4 4 7 9 7 14z m363 178c0 10-4 19-12 27-10 8-19 12-29 12l-109 0c0 13 4 29 14 49 10 20 15 37 15 50 0 18-4 33-10 44-7 9-20 14-41 14-6-5-9-14-11-26-6-21-9-34-10-39-4-14-11-25-19-33-5-5-14-14-24-28l-1-2-3-3c-1-1-1-2-2-3-1-1-1-2-2-2-5-7-9-11-10-12-5-5-8-9-10-12-3-3-5-6-8-9-2-3-4-5-5-6-4-4-8-7-12-10-2-2-6-5-12-9-5-2-9-2-13-2l-10 0 0-197 10 0 1-1 12 0c1-1 2-1 3-1 1 0 3-1 6-2 5-2 9-3 11-3 5-2 9-3 12-3l10-4c6-3 9-4 10-4 43-15 78-22 108-22l37 0c41 0 61 17 61 52 0 8 0 13-1 17 7 3 12 8 14 16 3 5 5 13 5 23 0 9-2 16-5 21 11 8 17 21 17 37 0 6-1 11-2 16-2 6-6 11-10 15 7 0 14 4 19 14 4 9 6 18 6 26z m40 0c0-19-5-36-15-51 1-6 3-13 3-20 0-16-4-31-13-45 1-2 1-7 1-13 0-21-6-39-18-55 0-29-9-51-27-67-17-17-41-25-71-25l-41 0c-20 0-40 2-60 6-19 6-42 12-68 21-27 8-41 12-45 12l-90 0c-11 0-20 4-29 12-7 7-11 17-11 28l0 197c0 11 4 20 11 27 8 8 17 12 29 12l86 0c7 4 22 20 44 47 7 9 18 22 33 40 6 6 9 14 11 26 2 13 6 27 11 40 3 12 10 23 19 32 8 8 18 12 28 12 19 0 35-4 49-10 13-6 24-17 32-31 7-17 11-35 11-57 0-17-5-37-16-59l55 0c20 0 40-8 57-24 16-15 24-34 24-55z"/>
<glyph glyph-name="hand-2" unicode="&#57346;" d="M95 414c0-5-3-10-7-14-3-4-8-5-14-5-6 0-10 1-14 5-4 4-6 9-6 14 0 6 2 10 6 14 4 3 8 5 14 5 6 0 11-2 14-5 4-4 7-8 7-14z m363-178c0-10-4-19-12-27-10-8-19-12-29-12l-109 0c0-13 4-30 14-49 10-20 15-36 15-50 0-18-4-33-10-44-7-10-20-14-41-14-6 5-9 14-11 26-6 22-9 34-10 39-4 14-11 25-19 33-5 6-14 15-24 28l-1 2-3 3c-1 1-1 1-2 2-1 1-1 2-2 3-5 7-9 11-10 12-5 5-8 9-10 12-5 5-9 10-13 14-4 5-8 8-12 11-2 2-6 5-12 9-5 1-9 2-13 2l-10 0 0 197 10 0 1 1 12 0c1 1 2 1 3 1 1 0 3 1 6 2 5 1 9 2 11 3 5 2 9 3 12 3l10 4c6 3 9 4 10 4 43 14 78 22 108 22l37 0c41 0 61-17 61-52 0-8 0-14-1-17 7-4 12-9 14-16 3-5 5-13 5-23 0-9-2-16-5-21 11-9 17-21 17-37 0-6-1-11-2-16-2-6-6-11-10-15 7 0 14-5 19-14 4-10 6-18 6-26z m40 0c0 19-5 36-15 51 1 6 3 13 3 20 0 16-4 31-13 45 1 2 1 6 1 13 0 20-6 39-18 55 0 28-9 51-27 67-17 17-41 25-71 25l-41 0c-20 0-40-2-60-6-19-5-42-12-68-21-27-8-41-12-45-12l-90 0c-11 0-20-4-29-12-7-7-11-17-11-28l0-197c0-11 4-20 11-27 8-8 17-12 29-12l86 0c7-4 22-20 44-47 7-9 18-22 33-40 6-5 9-14 11-26 2-13 6-27 11-40 3-13 10-24 19-32 8-8 18-12 28-12 19 0 35 3 49 10 13 6 24 16 32 31 7 17 11 36 11 57 0 17-5 36-16 59l55 0c20 0 40 8 57 24 16 15 24 34 24 55z"/>
<glyph glyph-name="hand-3" unicode="&#57347;" d="M213 512l-174 0c-14 2-31-20-29-31l0-297c0-13 14-31 30-31l193 0 0-46c0-28 67-53 67-68 0-2-2-23-2-26 0-4-1-13 9-13 2 0 7 1 8 5 3 13 4 36 4 39 0 3 1 8-3 11-15 13-33 24-48 36-5 4-14 9-15 15-2 10-1 27-1 29 0 3-1 18 0 26 0 5 6 9 9 9l9 0 0-40c0-5 7-7 10-7 3 0 6-1 9 7l0 181c0 7 9 11 13 11 4 0 11-3 13-10l0-99c0-3 7-6 9-6 16 0 4 22 22 22 26 0 1-34 22-34 14 0 6 21 23 21 24 0 2-35 22-35 16 0 4 22 22 22 5 0 8-1 13-8l0-99c-4-11-24-24-33-35-3-2-3-6-3-8 0-3 2-18 2-40 0-9 4-13 10-13 5 0 10 5 10 10 0 3-2 16-2 38 0 4 5 7 8 10 11 9 26 24 27 36l0 54c14-5 37 18 35 32l0 301c0 12-13 30-28 31l-176 0c-4 0-7-7-7-9 0-3 4-8 7-10l173 0c6 0 9-8 12-12l0-301c-3-5-4-10-11-13l-5 0 0 30c0 9-16 25-25 25l-7 0c-2 0-7-1-12-2l0 234c0 3-5 7-9 8l-346 0c-3 0-7-5-8-8l0-243c0-4 7-7 9-8l201 0 0-14c-13 3-26-2-34-17l-195 0c-4 0-10 9-12 14l0 294c0 5 3 12 11 13l175 0c5 0 8 5 8 10 0 4-2 11-10 9z m190-70l0-206-3-1c-3 0-7 1-9 1-3 0-11-2-16-4-8 15-20 17-29 17-2 0-7-1-11-2l0 67c-1 8-11 22-21 26-6 2-14 2-20 2-9 6-68 42-76 42-6 0-18-6-18-14l0-81c3-10 13-14 18-14 9 0 49 27 51 27l0-79-189 0 0 219z m-129-112l-53-32 0 63z m-7 173c0 6-3 8-9 8-5 0-9-2-9-8 0-5 4-10 10-10 4 0 8 3 8 10z m195-174c0 6 3 20-10 20-4 0-6 0-9-7l0-25c0-4 4-7 9-7 13 0 10 13 10 19z"/>
<glyph glyph-name="heart-1" unicode="&#57348;" d="M269 47l178 167c43 43 65 85 65 126 0 40-12 72-36 96-24 22-57 34-101 34-11 0-23-2-36-6-13-4-24-9-34-16-9-6-18-12-27-19-8-6-15-12-22-18-7 6-14 12-22 18-9 7-18 13-27 19-10 7-22 12-34 16-13 4-25 6-36 6-44 0-78-12-101-34-24-24-36-56-36-96 0-13 2-26 7-39 5-14 10-25 15-33 6-11 12-20 19-28 7-8 12-14 16-18l4-5c2-1 3-2 4-2l178-168c3-3 8-5 13-5 5 0 9 2 13 5z"/>
<glyph glyph-name="heart-2" unicode="&#57349;" d="M422 240l-166-156-166 156c-35 35-53 68-53 100 0 15 2 28 6 40 5 11 10 21 15 27 6 6 14 11 24 17 9 4 18 7 27 9 11 1 20 2 28 2 7 0 18-3 32-7 13-6 23-12 31-19 6-4 14-10 25-19 3-3 6-6 9-10 4-4 6-7 8-8 3-4 7-6 14-6 7 0 12 2 14 6 1 1 4 4 7 8 4 4 7 7 10 10 11 9 19 15 25 19 7 7 18 13 31 19 14 4 25 7 32 7 8 0 17-1 28-2 9-2 17-5 27-9 11-6 19-11 24-17 6-6 10-16 15-27 4-12 6-25 6-40 0-32-18-65-53-100z m54 196c-24 22-57 34-101 34-11 0-23-2-36-6-13-4-24-9-34-16-9-6-18-12-27-19-8-6-15-12-22-18-7 6-14 12-22 18-9 7-18 13-27 19-10 7-22 12-34 16-13 4-25 6-36 6-44 0-78-12-101-34-24-24-36-56-36-96 0-13 2-26 7-39 5-14 10-25 15-33 6-11 12-20 19-28 7-8 12-14 16-18l4-5c2-1 3-2 4-2l178-168c3-3 8-5 13-5 5 0 9 2 13 5l178 167c43 43 65 85 65 126 0 40-12 72-36 96z"/>
<glyph glyph-name="user-1" unicode="&#57350;" d="M512 161l0-35c0-15-5-28-16-38-11-11-24-16-39-16l-402 0c-15 0-28 5-39 16-11 10-16 23-16 38l0 35c0 7 4 10 11 10l29 0 0 226c0 12 4 22 12 30 8 9 19 13 32 13l344 0c12 0 23-4 32-13 8-8 12-18 12-30l0-226 29 0c7 0 11-3 11-10z m-451 10l390 0 0 226c0 7-2 12-7 16-4 4-9 7-16 7l-344 0c-7 0-12-3-16-7-5-4-7-9-7-16z m430-20l-470 0 0-25c0-10 3-18 10-24 6-7 14-10 24-10l402 0c9 0 17 3 24 10 7 6 10 14 10 24z m-301 43l0 17c0 27 13 47 38 60-9 7-13 17-13 30l0 16c0 11 4 21 12 29 8 7 17 11 29 11 11 0 21-4 29-11 9-8 13-18 13-29l0-16c0-13-5-22-14-30 25-13 38-33 38-60l0-17-16 0 0 17c0 14-5 25-15 35-10 9-22 14-35 14-13 0-25-5-35-14-10-10-15-21-15-35l0-17z m41 123l0-16c0-7 2-13 8-17 5-5 10-8 17-8 7 0 12 3 17 8 5 4 8 10 8 17l0 16c0 7-3 12-8 17-5 5-10 8-17 8-7 0-12-3-17-8-6-5-8-10-8-17z m131-91l12 11 25-24-12-12z m0 133l26 26 12-12-26-25z m27-75l0 17 33 0 0-17z m-276-72l26 25 11-10-26-26z m0 160l12 12 26-26-12-10z m-23-88l0 17 33 0 0-17z m197-163c0-7-3-10-10-10l-42 0c-7 0-10 3-10 10 0 7 3 11 10 11l42 0c7 0 10-4 10-11z"/>
<glyph glyph-name="user-2" unicode="&#57351;" d="M333 158l0 26c0 20-8 38-23 53-15 15-33 23-54 23-21 0-40-8-55-23-15-15-22-33-22-53l0-26z m25 26l0-26 39 0c7 0 13-2 18-7 5-5 7-11 7-18l0-77-25 0 0 77-282 0 0-77-25 0 0 77c0 7 2 13 7 18 4 5 11 7 18 7l39 0 0 26c0 43 20 73 59 93-14 12-21 27-21 47l0 26c0 17 6 32 19 45 13 13 28 19 45 19 17 0 32-6 45-19 12-13 19-28 19-45l0-26c0-20-7-35-21-47 39-20 59-50 59-93z m-140 166l0-26c0-11 4-20 11-27 7-7 16-11 27-11 11 0 20 4 27 11 7 7 11 16 11 27l0 26c0 11-4 20-11 27-7 7-16 11-27 11-11 0-20-4-27-11-7-7-11-16-11-27z m201-143l18 18 40-39-18-18z m0 209l41 40 18-18-40-40z m42-117l0 25 51 0 0-25z m-426-113l40 39 18-18-40-39z m0 251l19 18 39-40-18-18z m-35-138l0 25 51 0 0-25z"/>
<glyph glyph-name="user-3" unicode="&#57352;" d="M390 460l39 38 13-13-39-38z m49-90l0 18 46 0 0-18z m-368 115l13 12 37-36-13-13z m-44-115l0 18 46 0 0-18z m362-352l-133 81-133-81c-10-5-19-5-28 0-9 5-13 12-13 22l0 4 21 138-96 104c-8 10-9 20-4 32 6 11 14 17 27 17l138 0 61 126c6 11 15 17 27 17 12 0 21-6 27-17l61-126 138 0c13 0 21-6 27-17 5-12 4-22-4-32l-96-104 20-138c1-1 1-3 1-4 0-7-3-13-9-18-5-5-12-8-19-8-5 0-10 1-13 4z m-128 98l137-83 2-1 2 0c6 0 9 2 9 8l0 2-22 146 102 110c3 4 4 8 2 13-2 4-6 6-11 6l-150 0-66 136c-2 4-5 6-10 6-5 0-9-2-10-6l-66-136-150 0c-5 0-9-2-11-6-2-5-2-9 2-13l102-110-22-147 0-1c0-3 1-5 4-7 3-2 7-2 9 0l137 83 5 3z m68 49l0-26-18 0 0 26c0 15-6 28-16 39-11 10-24 15-39 15-15 0-28-5-39-15-11-11-16-24-16-39l0-26-18 0 0 26c0 31 14 53 43 66-10 8-16 19-16 33l0 18c0 12 5 22 14 31 8 8 19 13 32 13 12 0 24-5 32-13 9-9 14-19 14-31l0-18c0-14-5-25-16-33 29-13 43-35 43-66z m-100 117l0-18c0-8 3-14 8-19 5-6 11-9 19-9 7 0 14 3 19 9 5 5 8 11 8 19l0 18c0 7-3 13-8 18-5 5-12 8-19 8-8 0-14-3-19-8-5-5-8-11-8-18z"/>
<glyph glyph-name="user-4" unicode="&#57353;" d="M512 512l-512 0 0-34 18 0 0-119 33 0 0 119 410 0 0-362c-1-7-11-14-18-15l-106 0 0-32 112 0c20 0 44 24 46 45l0 364 17 0z m-154-120l-135 0 0-33 135 0z m-179-128c0 43-33 77-75 77-33 0-70-20-77-66l0-21c0-2 1-8 2-11 11-37 47-55 74-55 41 0 76 35 76 76z m-34 0c0-24-19-41-42-41-26 0-42 19-42 41 0 22 16 43 42 43 23 0 42-18 42-43z m282 43l-204 0 0-34 204 0z m-131-140c0 9-7 41-24 37l-145-34-66 0c-28 0-64-37-61-66l0-87c0-5 5-11 9-14 2-1 6-2 8-3l170 0c4 0 12 7 17 12l0 54c0 30 92 44 92 101z m-34-6c-1-3-2-6-4-8-32-28-88-39-88-85l0-33-135 0 0 74c0 14 19 27 32 27l68 0 127 31z"/>
<glyph glyph-name="user-5" unicode="&#57354;" d="M418 512l-325 0c-30 1-67-37-67-67l0-300c0-26 34-67 65-68l77 0c25-25 49-50 75-73 3-3 10-4 12-4 4 0 10 1 14 4 28 23 57 48 86 73l65 0c28 0 66 42 66 69l0 299c0 28-36 68-68 67z m-9-51c7 2 25-8 25-19l0-294c-2-8-14-20-22-20l-73 0c-26-15-55-45-81-68-7 7-63 68-73 68l-86 0c-6 1-21 12-21 19l0 295c0 11 15 19 24 19z m-70-135c0 45-37 84-84 84-44 0-82-37-82-84 0-18 2-28 18-51-10-4-55-46-55-70 0-12 11-27 26-27 18 0 21 18 32 33 16 23 42 31 61 31 21 0 47-7 63-32 12-17 15-31 32-31 11 0 26 10 26 26 0 19-35 61-55 70 14 21 18 32 18 51z m-51 0c0-20-16-32-33-32-20 0-31 16-31 32 0 19 15 33 31 33 21 0 33-17 33-33z"/>
<glyph glyph-name="user-6" unicode="&#57355;" d="M436 506l-386 0c-21 1-50-27-50-48l0-391c0-19 27-47 48-48l199 0c10 0 15 13 15 19 0 4-4 15-15 17l-195 0c-4 0-13 11-16 17l0 382c0 6 10 14 16 15l382 0c5 0 13-9 17-14l0-197c0-9 13-14 18-14 4 0 15 4 18 15l0 199c0 22-30 50-51 48z m-112-168c0 45-34 80-81 80-34 0-68-18-80-68l0-25c0-8 13-37 23-43-51-24-73-66-73-104 0-7 2-22 17-22 5 0 18 5 18 14 5 66 52 86 95 86 44 0 92-20 95-86 0-7 11-14 18-14 12 0 19 10 19 22 0 38-24 80-73 104 19 22 22 36 22 56z m-37 0c0-26-22-43-44-43-26 0-42 21-42 43 0 26 20 42 42 42 26 0 44-20 44-42z m164-188c0 11-9 18-19 18-6 0-17-4-17-13-3-47-2-48-2-49l-49 0c-9 0-13-12-13-18 0-7 4-17 15-19l49 0 0-50c0-6 12-13 17-13 7 0 18 7 19 20l0 43 45 0c8 0 16 11 16 19 0 5-2 15-14 18l-47 0z"/>
<glyph glyph-name="comment-1" unicode="&#57356;" d="M445 512l-379 0c-29 0-64-35-66-64l0-430c0-12 17-18 24-18 4 0 10 1 13 4 34 31 68 65 102 98l306 0c22 0 65 30 67 65l0 281c0 28-40 66-67 64z m-13-51c15 2 29-13 29-25l0-257c0-4-9-25-20-25l-317 0c-23-8-52-46-73-66l0 348c-4 11 16 29 27 25z"/>
<glyph glyph-name="comment-2" unicode="&#57357;" d="M83 498c-23 0-43-8-59-25-16-16-24-35-24-58l0-384c0-9 3-14 10-15 1-2 3-2 7-2 2 0 5 1 9 3l96 86 307 0c23 0 43 8 59 24 16 16 24 35 24 58l0 230c0 23-8 42-24 58-16 17-36 25-59 25z m383-47c10-10 15-22 15-36l0-230c0-15-5-27-15-36-10-9-22-14-37-14l-313 0c-5 0-8-2-10-4l-73-64 0 348c0 14 4 25 14 36 9 9 21 14 36 14l346 0c14 0 27-5 37-14z m-86-108c0 7-3 13-7 17-5 5-11 7-18 7-7 0-14-2-18-7-5-4-7-10-7-17l0-126c0-7 2-13 7-18 4-4 11-7 18-7 7 0 13 3 18 7 4 5 7 11 7 18z m-98-40c0 7-2 13-7 18-5 4-11 7-18 7-7 0-13-3-18-7-5-5-7-11-7-18l0-86c0-7 2-13 7-18 5-4 11-7 18-7 7 0 13 3 18 7 5 5 7 11 7 18z m-98 80c0 7-3 13-7 17-5 5-11 7-18 7-7 0-14-2-18-7-5-4-7-10-7-17l0-166c0-7 2-13 7-18 4-4 11-7 18-7 7 0 13 3 18 7 4 5 7 11 7 18z"/>
<glyph glyph-name="comment-3" unicode="&#57358;" d="M83 498l346 0c23 0 43-8 59-25 16-16 24-35 24-58l0-230c0-23-8-42-24-58-16-16-36-24-59-24l-307 0-96-86c-4-2-7-3-9-3-4 0-6 0-7 2-7 1-10 6-10 15l0 384c0 23 8 42 24 58 16 17 36 25 59 25z m383-47c-10 9-23 14-37 14l-346 0c-15 0-27-5-36-14-10-11-14-22-14-36l0-348 73 64c2 2 5 4 10 4l313 0c15 0 27 5 37 14 10 9 15 21 15 36l0 230c0 14-5 26-15 36z m-93-87l-234 0c-11 0-17 6-17 18 0 10 6 16 17 16l234 0c11 0 17-6 17-16 0-12-6-18-17-18z m0-80l-234 0c-11 0-17 5-17 17 0 10 6 16 17 16l234 0c11 0 17-6 17-16 0-12-6-17-17-17z m-117-81l-117 0c-11 0-17 5-17 15 0 11 6 17 17 17l117 0c11 0 17-6 17-17 0-10-6-15-17-15z"/>
<glyph glyph-name="comment-4" unicode="&#57359;" d="M512 365l0-337c0-7-3-12-9-13-1-1-2-1-5-1-2 0-5 1-9 3l-83 74-267 0c-20 0-37 7-51 21-14 15-21 31-21 52l0 201c0 18 7 35 21 51 14 14 31 21 51 21l301 0c20 0 37-7 51-21 14-16 21-33 21-51z m-418-201c0-12 4-23 13-33 9-8 19-12 32-12l273 0c3 0 6-1 8-3l63-56 0 305c0 12-4 23-12 31-9 8-19 13-31 13l-301 0c-11 0-22-5-32-13-9-9-13-19-13-31z m279 136l0-97c0-5-2-10-5-14-4-4-8-5-14-5-5 0-10 1-14 5-3 4-5 9-5 14l0 97c0 6 2 10 5 14 4 4 9 6 14 6 6 0 10-2 14-6 3-4 5-8 5-14z m-81-16c4-4 6-8 6-14l0-67c0-5-2-10-6-14-3-4-8-5-13-5-5 0-9 1-13 5-4 4-6 9-6 14l0 67c0 6 2 10 6 14 4 3 8 5 13 5 5 0 10-2 13-5z m-69 47l0-128c0-5-2-10-6-14-3-4-8-5-13-5-5 0-10 1-14 5-3 4-5 9-5 14l0 128c0 6 2 10 5 14 4 4 9 7 14 7 5 0 10-3 13-7 4-4 6-8 6-14z m146 127l-3 3c-7 7-17 11-28 11l-273 0c-12 0-21-4-28-11-7-8-11-17-11-28l0-277 18 17 0-34-23-21c-3-2-5-3-8-3-3 0-5 0-5 1-5 2-8 6-8 12l0 305c0 18 6 33 19 46 12 13 27 19 46 19l273 0c18 0 33-6 46-19 7-8 12-15 14-21z"/>
<glyph glyph-name="comment-5" unicode="&#57360;" d="M512 303l0-291c0-7-3-10-7-11-1-1-2-1-5-1l-8 2-72 65-230 0c-18 0-32 6-44 18-12 12-18 27-18 44l0 174c0 17 6 31 18 43 12 13 26 19 44 19l260 0c17 0 32-6 44-19 12-12 18-26 18-43z m-360-174c0-11 4-20 11-26 7-8 17-12 27-12l235 0c4 0 7-1 8-3l54-48 0 263c0 11-3 20-10 27-7 7-16 10-27 10l-260 0c-11 0-21-3-27-10-7-7-11-16-11-27z m80 160l176 0c8 0 12-4 12-12 0-8-4-12-12-12l-176 0c-8 0-12 4-12 12 0 8 4 12 12 12z m0-60l176 0c8 0 12-5 12-13 0-8-4-12-12-12l-176 0c-8 0-12 4-12 12 0 8 4 13 12 13z m88-62l88 0c8 0 12-4 12-12 0-8-4-12-12-12l-88 0c-8 0-12 4-12 12 0 8 4 12 12 12z m29 310c-7 6-16 10-27 10l-260 0c-11 0-21-4-27-11-7-6-10-15-10-26l0-263 54 48c1 1 4 2 8 2l17 0 0-23-12 0-72-65-8-2c-3 0-4 0-5 1-5 0-7 4-7 11l0 291c0 16 6 30 18 43 12 12 26 19 44 19l260 0c17 0 32-7 44-19 12-13 18-27 18-43l0-53-24 0 0 53c0 11-4 20-11 27z"/>
<glyph glyph-name="comment-6" unicode="&#57361;" d="M232 286c0-7-4-11-12-11l-117 0c-7 0-11 4-11 11 0 8 4 12 11 12l117 0c8 0 12-4 12-12z m-140 78c0 8 4 12 11 12l166 0c8 0 12-4 12-12 0-7-4-11-12-11l-166 0c-7 0-11 4-11 11z m404-76c11-11 16-24 16-39l0-192c0-5-2-8-6-10-1-1-2-1-5-1-1 0-3 1-6 2l-76 46-129 0c-15 0-27 6-38 17-10 10-15 24-15 39l0 35-114 0-106-65c-3-2-5-2-6-2-3 0-4 0-5 1-4 2-6 5-6 10l0 265c0 20 7 37 20 51 14 14 31 21 50 21l232 0c19 0 36-7 50-21 14-14 21-31 21-51l0-90 85 0c15 0 27-5 38-16z m-194-79c13 0 25 4 34 14 9 9 14 20 14 34l0 137c0 14-5 25-14 35-9 9-21 14-34 14l-232 0c-13 0-25-5-34-15-9-10-14-21-14-34l0-244 92 57c3 1 5 2 6 2z m188 40c0 9-3 16-10 23-6 6-13 9-22 9l-85 0 0-24c0-20-7-36-21-50-14-15-31-22-50-22l-43 0 0-35c0-9 3-16 9-23 6-6 13-9 22-9l132 0c3 0 5-1 6-2l62-38z"/>
<glyph glyph-name="comment-7" unicode="&#57362;" d="M7 140c2 0 3-1 5-1 3 0 6 1 8 3l87 72 32 0c0-50 41-91 92-91l174 0 87-72c2-2 5-3 8-3 2 0 3 0 5 1 4 2 7 6 7 11l0 221c0 51-42 92-93 92l-46 0c0 50-41 91-92 91l-188 0c-51 0-93-41-93-92l0-221c0-4 3-9 7-11z m481 141l0-195-70 58c-3 2-5 3-8 3l-179 0c-37 0-68 30-68 68l0 66c0 37 31 68 68 68l188 0c38 0 69-31 69-68z m-464 91c0 37 31 68 69 68l188 0c37 0 67-30 68-67l-118 0c-51 0-92-41-92-92l0-43-37 0c-3 0-5-1-8-2l-70-59z m338-142l-117 0c-7 0-12-5-12-12 0-6 5-12 12-12l117 0c7 0 12 6 12 12 0 7-5 12-12 12z m-129 47c0-6 5-12 12-12l161 0c6 0 12 6 12 12 0 7-6 13-12 13l-161 0c-7 0-12-6-12-13z"/>
<glyph glyph-name="comment-8" unicode="&#57363;" d="M512 255c0 141-114 257-257 257-115 0-239-80-255-238l0-36c0-2 5-35 9-52 41-130 151-186 247-186 45 0 92 15 137 39l100-39c8 0 21 11 19 19l-33 112c22 41 33 84 33 124z m-37 2c0-37-11-77-33-116-1-1-1-6-1-8l24-84c-8 5-65 29-75 29-6 0-39-20-50-24-29-12-57-18-86-18-81 0-180 50-213 159-4 15-8 42-8 44l0 36c16 136 119 203 221 203 124 0 221-100 221-221z m-311 0c0 17-13 35-37 35-21 0-35-15-35-35 0-19 11-37 35-37 17 0 37 13 37 37z m128 0c0 17-13 35-37 35-20 0-35-15-35-35 0-19 11-37 35-37 17 0 37 13 37 37z m128 0c0 17-12 35-36 35-21 0-36-15-36-35 0-19 11-37 36-37 17 0 36 13 36 37z"/>
<glyph glyph-name="comment-9" unicode="&#57364;" d="M484 163l28-96c-1-4-2-7-6-11-3-3-6-4-9-4l-95 28c-35-16-67-24-95-24-4 0-12 1-21 2-10 1-21 3-32 6-2 1-7 2-13 4-6 2-9 3-10 3 0 0-2 0-4-1-2-1-3-2-4-2-20-8-39-12-59-12-26 0-51 6-75 18l-73-21c-4-1-8 1-12 5-4 4-5 7-3 10l21 75c-12 27-17 47-17 58l0 32c2 13 5 26 9 39 4 16 14 34 32 53 18 19 36 32 52 39 14 5 23 8 26 9 2 1 5 1 9 2 4 0 8 1 10 2 2 1 4 3 6 6 2 3 4 5 4 6 9 11 19 21 29 28 14 12 29 21 45 27 7 3 14 6 22 8 7 3 16 5 26 6 6 1 17 2 31 2 56 0 104-20 143-59 39-39 58-87 58-143 0-30-8-62-23-95z m-57 216c-33 33-73 50-120 50-41 0-78-13-111-40-33-28-53-65-60-114l0-33c0-2 1-6 3-13 2-7 3-13 5-19l2-9c13-37 35-66 65-85 31-19 63-29 95-29 21 0 43 5 64 13 18 8 28 12 30 12l73-21-21 74 0 5c17 29 25 59 25 88 0 47-17 87-50 121z m-307-41c-27-9-48-25-63-48-15-23-23-47-23-72 0-19 7-44 20-73l-14-53c4 1 11 3 20 6 9 2 16 4 22 6 6 1 9 2 9 2 1 0 9-3 25-9 16-7 32-10 48-10 2 0 11 1 29 3-59 41-89 97-89 168 0 33 6 60 16 80z m268-12c3-3 4-7 4-11 0-3-1-7-4-10-3-3-7-5-10-5l-144 0c-8 1-13 7-13 16 0 3 2 6 5 10 3 3 6 5 9 4l142 0c4 1 8-1 11-4z m4-68c0-3-1-7-4-10-3-3-7-5-10-5l-144 0c-8 5-13 10-13 16 0 3 2 6 5 10 3 3 6 5 9 4l143 0c9 0 14-5 14-15z m-50-47c2-3 3-6 3-9 0-4-1-8-4-11-3-3-7-5-11-5l-95 0c-9 1-14 7-14 16 0 3 2 6 5 10 3 3 6 5 8 4l97 0c5 0 8-2 11-5z"/>
<glyph glyph-name="comment-10" unicode="&#57365;" d="M436 74c-51-49-111-74-180-74-43 0-88 12-135 37l-100-26c-14 0-21 7-21 21 0 3 3 12 8 28 6 17 9 27 10 31 0 3 1 8 2 15l0 33c-1 4-4 19-10 45-7 26-10 45-10 58l0 28c6 75 34 134 85 178 51 42 108 64 172 64 71 0 131-25 181-75 49-50 74-111 74-182 0-71-25-131-76-181z m-30 333c-41 41-92 62-152 62-51 0-98-17-138-51-42-35-66-83-73-144l0-36c0-3 5-25 14-66 3-10 5-22 6-36l0-27c-3-19-5-34-7-45l69 18c6-1 15-4 27-11 11-7 19-11 23-12 29-11 56-16 81-16 59 0 109 21 150 61 42 41 63 92 63 151 0 60-21 111-63 152z m-49-93c4-5 6-9 6-14 0-5-2-10-7-15-4-5-9-7-14-7l-173 0c-7 1-12 3-15 8-3 4-5 9-5 14 0 5 2 9 5 14 4 5 9 7 14 6l175 0c5 0 10-2 14-6z m-1-86c5-6 7-10 7-15 0-5-2-9-6-14-4-5-8-7-12-7l-179 0c-11 5-17 12-17 21 0 5 2 10 6 15 4 5 9 7 16 6l169 0c7 1 12-2 16-6z"/>
<glyph glyph-name="comment-11" unicode="&#57366;" d="M75 75c-50 50-75 110-75 181 0 55 16 104 48 148 31 45 73 76 125 94l12-35c-45-15-80-42-108-80-27-38-41-80-41-127 0-61 22-112 64-155 43-43 95-64 156-64 50 0 95 15 135 46l9 7 76-35-28 94 3 6c16 32 25 65 25 101 0 60-22 112-64 155-43 43-95 64-156 64-14 0-25-1-31-2l-6 36c12 2 24 3 37 3 71 0 131-25 181-75 50-50 75-110 75-181 0-39-8-76-25-111l23-80c1-4 2-7 2-10 0-10-4-19-11-26-7-7-15-11-25-11-6 0-12 2-16 4l-55 25c-46-31-95-47-149-47-71 0-131 25-181 75z m252 269c-3 16-11 30-25 41-13 11-29 17-46 17-17 0-33-6-46-17-13-11-22-25-25-41l-22-106 38 0 0-37-54 0c-5 0-10-2-13-5-4-4-6-8-6-13 0-5 2-9 6-13 3-3 8-5 13-5l218 0c6 0 10 2 14 5 3 4 5 8 5 13 0 5-2 9-5 13-4 3-8 5-14 5l-54 0 0 37 38 0z m-180-216c-16 0-29 5-40 16-10 11-16 24-16 39 0 23 11 40 33 50l25 119c5 25 17 46 37 63 20 16 44 24 70 24 26 0 49-8 69-24 20-17 33-38 38-63l25-119c22-10 33-27 33-50 0-15-6-28-16-39-11-11-25-16-40-16z m91 73l0 37 36 0 0-37z"/>
<glyph glyph-name="comment-12" unicode="&#57367;" d="M470 512l-429 0c-16 1-41-20-41-39l0-342c0-16 20-38 39-39l136 0c24-30 47-60 71-88 2-3 7-4 10-4 3 0 7 1 10 4 25 29 48 59 71 88l135 0c17 0 39 22 40 40l0 341c0 16-20 38-42 39z m-2-30c3 0 14-5 14-11l0-337c-1-1-6-12-12-12l-144 0c-2-1-5-1-6-3-22-25-42-53-63-79-18 18-64 82-72 82l-144 0c-1 1-11 6-11 11l0 338c2 4 9 12 13 11z m-310-48l-85 0c-4 0-13-6-13-11l0-90c0-3 10-9 12-11l87 0c5 0 11 10 13 12l0 89c0 4-10 11-14 11z m-16-30l0-52-52 0 0 52z m180 20l-106 0c-10-1-13-7-13-14 0-6 3-11 12-15l107 0c8 0 13 9 13 15 0 7-4 13-13 14z m115-63l-220 0c-9 1-14-8-14-14 0-4 2-14 11-15l226 0c6 0 12 9 12 15 0 6-6 15-15 14z m-116-88l-105 0c-10-1-13-8-13-15 0-6 3-11 12-15l108 0c9 0 12 11 12 15 0 5-4 17-14 15z m-150-18c0 6-4 15-14 15-12 0-55-49-57-52-10 11-17 19-26 19-6 0-14-3-14-14 0-3 1-7 3-10 12-13 24-30 37-30 2 0 6 1 8 3 19 18 37 38 56 55 6 7 7 9 7 14z m266-46l-220 0c-11 0-14-10-14-15 0-6 3-12 11-14l226 0c6 0 12 9 12 14 0 7-6 16-15 15z"/>
<glyph glyph-name="award-1" unicode="&#57368;" d="M419 361l-64-64 14-91c2-10-1-17-8-23-9-7-17-7-25-2l-68 36 0-111 63 0c12 0 22-5 31-14 8-8 13-19 13-31l0-37 41 0 0-24-319 0 0 24 40 0 0 37c0 12 4 23 13 31 8 9 19 14 31 14l64 0 0 111-69-36c-3-2-7-3-10-3-5 0-9 2-14 5-8 6-11 13-9 23l14 91-64 64c-7 8-8 16-6 25 3 9 10 15 19 17l89 13 40 83c4 9 11 13 21 13 10 0 17-4 21-13l40-83 89-13c9-2 16-8 19-17 2-9 0-17-6-25z m-74-286c-4 4-8 6-14 6l-150 0c-6 0-11-2-15-6-3-4-5-9-5-14l0-37 190 0 0 37c0 5-2 10-6 14z m57 304l-101 15-45 94-45-94-101-16 73-72-17-104 90 49 90-49-17 104z"/>
<glyph glyph-name="award-2" unicode="&#57369;" d="M392 196l0-182c-4-9-10-14-18-14-4 0-24 11-61 32-36 22-55 33-58 33-1 0-20-11-57-33-37-21-57-32-62-32-2 0-6 1-10 4-4 3-6 6-6 9l0 183c-12 11-24 28-34 54-11 24-16 45-16 61l0 27c6 55 27 97 63 128 36 31 76 46 122 46 52 0 96-18 133-54 36-36 54-80 54-133 0-50-17-93-50-129z m-28 236c-30 31-66 46-109 46-36 0-70-12-100-37-30-25-47-59-51-104l0-25c0-7 2-17 6-30 9-36 28-64 56-82 29-20 58-29 89-29 42 0 77 15 108 45 30 29 45 66 45 109 0 41-15 77-44 107z m-209-266l0-119c11 7 30 18 56 33 26 16 41 23 44 23 8 0 42-19 102-56l0 119c-32-20-66-30-102-30-36 0-69 10-100 30z"/>
<glyph glyph-name="award-3" unicode="&#57370;" d="M386 507c4-3 6-5 6-8l0-109c-3-4-7-8-12-12-5-3-9-6-11-8-3-1-8-4-16-7l-11-5c-7-3-13-7-19-11-2-17-4-28-6-33l-9-15c0-7 4-19 12-35 2-5 5-7 8-7l75 0c26-6 39-21 39-44 0-11-4-21-12-31-8-9-17-17-27-23-10-5-18-11-26-17-8-6-12-11-12-15 0-3 4-16 11-38 8-22 12-36 12-43 0-12-5-23-13-32-9-9-19-14-32-14-10 0-26 8-49 25-24 17-36 25-39 25-2 0-15-8-38-25-23-17-39-25-48-25-13 0-23 5-32 14-8 9-13 20-13 32 0 7 4 21 12 43 7 22 11 35 11 38 0 7-15 20-44 39-22 11-33 26-33 47 0 5 0 9 1 10 1 7 6 14 14 22 8 8 15 12 22 12l76 0c4 3 7 6 8 7 8 21 13 32 13 35 0 1-2 4-6 9-3 5-6 9-6 11-1 3-2 12-4 28-8 6-17 11-27 15l-8 4c-6 2-11 4-15 6-4 2-8 5-12 8-4 3-6 6-6 9l0 110c1 3 3 5 6 9 4 3 7 4 9 4l241 0c2 0 6-2 10-5z m-231-29l0-74 46-24c10 20 28 30 54 30 26 0 45-10 56-30l46 24 0 74z m125-113c-6 7-14 10-25 10-9 0-17-3-23-10-7-6-10-14-10-23 0-9 3-17 9-24 5-7 13-10 24-10 9 0 17 3 24 9 7 6 11 14 11 25 0 9-4 16-10 23z m-48-88c-2-11-8-23-17-36-10-13-20-19-30-18l-74 0c-6 0-8-3-8-10 0-5 6-11 19-20 13-8 26-18 39-30 12-11 19-23 19-36 0-7-4-22-12-44-7-21-11-34-11-37 0-2 1-4 4-8 2-3 5-4 8-4 2 0 14 8 36 25 22 17 39 25 50 25 7 0 13-1 17-2 4-1 16-10 36-25 21-15 32-23 34-23 8 0 12 4 12 12 0 5-4 17-11 38-8 21-12 36-12 43 0 13 7 25 20 36 12 11 25 21 38 29 13 9 19 16 19 21 0 5-3 8-9 10l-71 0c-11 0-21 5-31 16-9 11-15 24-17 38-12-3-20-5-25-5-3 0-11 2-23 5z"/>
<glyph glyph-name="award-4" unicode="&#57371;" d="M102 435c-6-10 5-88 5-88-37 19-52 88-52 88z m308 0l47 0c0 0-15-69-52-88 0 0 11 78 5 88z m0-435l0 156-57 0-17 66c14 9 39 49 39 49 146 55 137 214 137 214l-102 0 0 27-308 0 0-27-102 0c0 0-9-159 137-214 0 0 25-40 39-49l-17-66-57 0 0-156z m-53 104l0-52-202 0 0 52z m-71 102l14-50-88 0 14 50z m70 257c24-161-56-206-56-206l-88 0c0 0-80 45-56 206z"/>
<glyph glyph-name="award-5" unicode="&#57372;" d="M326 482l83 0-92-139-43 64z m-226 1l87 0 102-152-86 0z m49-348c0 58 48 105 107 105 59 0 107-47 107-105 0-58-48-105-107-105-59 0-107 47-107 105z m153 127c-14 5-30 8-46 8-16 0-31-3-46-8l0 39 92 0z m-183-127c0-75 61-135 137-135 76 0 138 60 138 135 0 47-25 88-61 112l0 64 119 178c9 20-11 23-11 23l-123 0c-12 1-16-10-16-10l-46-68c0 0-42 62-48 70-5 8-15 8-15 8l-121 0c-19-3-13-20-13-20l121-181 0-64c-37-24-61-65-61-112z m98-19l-7-34c-1-5 0-8 4-10 2-2 4-3 6-3 2 0 3 1 5 1l0 1 31 17 31-17 0-1c4-2 8-1 11 1 4 2 6 5 5 11l-7 34c2 1 5 5 11 10 1 1 1 1 2 2 1 1 2 2 3 2 1 1 2 2 3 3 1 1 2 2 3 3 1 0 2 2 4 4 4 3 4 7 2 11-2 4-4 6-8 7l-1 0-35 4-14 31-1 0c0 3-1 5-3 6-2 1-4 2-5 2-5 0-8-2-10-6l-1-1-14-31-35-4-1 0c-2 0-4-1-5-2-2-2-3-3-4-5 0-5 1-9 3-12z"/>
<glyph glyph-name="award-6" unicode="&#57373;" d="M393 512l-274 0c-22 3-52-28-51-49 0-4-1-10-2-14l0-301c0-11 14-39 25-46 27-18 54-38 81-56 31-21 53-46 84-46 30 0 52 25 84 46 27 19 55 37 81 56 17 12 21 32 25 47l0 299c0 26-18 62-53 64z m0-38c15 0 16-29 16-38l0-283c-1-12-9-22-21-29-41-25-79-56-120-83-3-2-10-4-12-4-11 0-17 7-30 16-19 14-38 27-57 40-20 14-42 26-60 41-5 5-6 17-6 18l0 284c1 12-2 33 15 38z m-196-208l-11-52c-1-7 1-13 7-16 2-2 5-3 9-3 2 0 4 0 7 1l1 1 45 25 46-25 2-1c6-3 11-2 16 1 6 3 8 8 7 16l-11 52c3 2 9 8 17 17 1 0 2 1 4 3 1 1 3 2 4 3 1 1 2 2 4 4 2 2 4 3 4 4 2 1 4 3 7 6 5 5 6 11 3 17-3 6-7 10-13 11l-1 0-52 6-22 47-1 1c0 4-2 7-4 9-3 2-6 3-8 3-7 0-12-3-15-9l-1-1-21-48-53-5-1 0c-3-1-6-3-8-5-3-2-5-5-6-7-1-8 1-14 5-18z"/>
<glyph glyph-name="award-7" unicode="&#57374;" d="M405 511l-300 0c-13 2-31-16-32-29l0-44-43 0c-13 0-29-18-30-30l0-107c0-36 42-80 81-81l29 0c39-51 85-67 128-72l0-39-63 0c-19 0-47-27-47-47l0-48c0-4 9-11 14-14l227 0c19 0 15 33 15 38 0 34 0 55-48 71l-62 0 0 39c43 5 90 24 128 72l28 0c3 0 6 2 9 2 29 3 70 39 73 80l0 106c0 13-19 29-31 30l-42 0 0 44c0 12-23 34-34 29z m-3-36l0-157c-9-88-81-135-147-135-51 0-113 29-138 100-4 11-7 34-7 36l0 156z m-330-73l0-85c1-18 7-42 15-61-27 4-50 28-50 51l0 95z m403 0l0-97c-1-24-31-48-50-49 7 19 11 43 15 60l0 86z m-145-330c3 0 17-7 17-14l0-21-182 0 0 21c0 5 9 15 16 14z"/>
<glyph glyph-name="award-8" unicode="&#57375;" d="M256 472c40 0 74-15 103-44 28-29 42-65 42-106 0-42-14-77-42-106-29-29-63-44-103-44-40 0-74 15-103 44-28 29-42 64-42 106 0 41 14 77 42 106 29 29 63 44 103 44z m-126-150c0-36 12-67 37-92 24-26 54-38 89-38 35 0 64 12 89 38 24 25 37 56 37 92 0 36-13 66-37 92-25 25-54 38-89 38-35 0-65-13-89-38-25-26-37-56-37-92z m34 28c1 3 3 6 8 7l52 8 23 49c2 3 5 5 9 5 4 0 7-2 9-5l23-49 52-8c4-1 7-4 8-7 1-3 0-7-3-10l-37-38 9-54c0-4-1-7-4-10-3-2-7-2-11 0l-46 25-47-25c-4-2-7-2-10 0-3 3-4 6-4 10l9 54-38 38c-3 3-4 7-2 10z m30-10l27-28c2-2 3-5 3-8l-7-39 34 18c1 1 3 1 5 1 2 0 3 0 5-1l34-18-7 39c0 3 1 6 3 8l27 28-38 6c-3 0-6 2-7 5l-17 36-17-36c-2-3-4-5-7-5z m52 162c0-7 3-10 10-10 6 0 10 3 10 10 0 6-4 10-10 10-7 0-10-4-10-10z m-24-3c1-7-1-11-7-12-36-10-66-30-89-61-23-31-35-66-35-104 0-47 16-87 49-120 32-34 71-50 116-50 45 0 84 16 116 49 32 33 49 74 49 121 0 38-12 73-35 104-23 31-53 51-89 61-8 1-10 5-7 12 1 6 5 8 11 7 41-10 74-33 100-67 26-35 39-74 39-117 0-56-21-103-61-141l59-106c1-4 1-8-1-11-2-3-5-4-9-4l-68 15-23-68c-1-3-3-6-8-7l0 0c-4 0-7 1-9 5l-64 117-64-117c-2-4-6-5-10-5-4 1-7 4-8 7l-24 68-66-15c-4 0-7 1-9 4-3 4-3 8-1 11l58 106c-40 38-60 85-60 141 0 43 13 82 39 117 26 34 59 57 100 67 6 1 9-1 11-7z m17-366c-33 3-64 15-92 35l-45-84 53 12c6 1 10-1 11-7l19-55z m171-49l-46 84c-27-20-58-32-91-35l54-99 18 55c2 6 5 8 12 7z"/>
<glyph glyph-name="award-9" unicode="&#57376;" d="M266 507c-2 4-8 5-11 5-5 0-9 0-13-8-10-16-17-35-26-51-11-2-24-3-34-5-9-2-34 2-34-18 0-12 37-37 45-53l-9-56c-3-8 7-16 14-16 5 0 55 28 57 28 2 0 52-28 58-28 5 0 17 8 14 16l-9 56c2 12 45 41 45 53 0 20-26 16-34 18-11 2-23 3-34 5-10 17-18 37-29 54z m10-80c11-7 26-6 39-8-11-13-28-21-28-36 0-2 3-21 5-35-8 4-28 17-37 17-10 0-31-13-36-17 2 11 5 33 5 35 0 15-14 19-28 36 13 2 26 3 39 8 3 1 6 7 7 9 3 8 9 17 13 26 6-8 8-28 21-35z m39-157l-120 0c-28 2-59-38-50-62-8 3-15 5-24 6l-72 0c-18 0-46-21-49-43l0-163c0-2 5-6 8-8l494 0c5 0 8 9 10 11l0 113c0 24-29 52-54 50l-66 0c-3 0-22-6-24-6-3 0-2 1-2 1l0 56c0 20-33 48-51 45z m-2-30c7-1 23-11 23-19l0-192-161 0 0 192c0 9 14 20 22 19z m-196-56c14 3 27-14 27-24l0-131-115 0 0 135c-1 8 15 22 24 20z m338-40c8 2 27-9 27-22l0-93-115 0 0 89c-1 13 15 28 28 26z"/>
<glyph glyph-name="rocket-1" unicode="&#57377;" d="M477 512l-20 0c-95 0-210-32-285-154-8 2-23 3-25 3-61 0-74-39-147-107 29-32 57-47 87-47 16 0 26 3 46 14 5-12 5-29 16-43l-44-45 28-28 44 44c15-8 33-14 47-16-7-10-13-34-13-48 0-26 10-58 43-85 67 74 107 86 107 148 0 2-3 21-3 23 0 1 49 38 63 51 9 10 18 20 26 30 11 15 20 30 27 43 5 10 10 21 14 31 17 44 24 89 24 131 0 20 0 29-5 51-9 1-20 3-30 4z m-5-40l0-30c-2-26-6-50-12-76l-94 94c23 7 52 10 76 12z m-28-148c-42-87-136-150-206-150-12 0-17 0-30 4l39 40-29 29-39-39c-3 6-6 18-6 20l0 20c6 66 72 163 151 196z m-292-3c-6-13-9-28-15-40-4-8-14-15-22-22-3-4-6-6-9-7-6-3-17-5-19-5-10 0-18 3-28 9 26 28 54 65 81 65z m106-262c-4 7-7 18-7 26 0 17 7 39 30 53 11 7 27 8 40 14 7-41-50-72-63-93z m115 254c0 32-26 60-60 60-25 0-55-17-60-50l0-20c0-2 4-11 6-16 13-26 36-34 54-34 32 0 60 27 60 60z m-40 0c0-12-10-19-20-19-15 0-19 10-19 20 0 10 7 19 19 19 10 0 20-9 20-20z"/>
<glyph glyph-name="rocket-2" unicode="&#57378;" d="M512 462c0 26-19 50-51 50l-10 0c-131-40-262-84-393-120-34-10-58-25-58-56 0-14 2-32 21-42 59-33 130-48 181-93 32-27 35-77 56-112 19-33 27-89 76-89 17 0 39 7 48 32 24 71 45 144 67 216 6 20 13 41 18 60 6 22 13 46 21 67 2 11 24 68 24 87z m-176-408l-82 161c38 39 77 78 114 117 4 5 8 15 8 17 0 13-15 27-27 27-4 0-10 0-13-4-42-38-81-79-121-118l-161 80 406 126z"/>
<glyph glyph-name="rocket-3" unicode="&#57379;" d="M0 462c0 26 19 50 51 50l10 0c131-40 262-84 393-120 34-10 58-25 58-56 0-14-2-32-21-42-59-33-130-48-181-93-31-27-35-77-56-112-19-33-27-89-76-89-17 0-39 7-48 32-24 71-45 144-67 216-6 20-13 41-18 60-6 22-13 46-21 67-2 11-24 68-24 87z m176-408l82 161c-38 39-77 78-114 117-4 5-8 15-8 17 0 13 15 27 27 27 4 0 10 0 13-4 42-38 81-79 121-118l161 80-406 126z"/>
<glyph glyph-name="rocket-4" unicode="&#57380;" d="M485 221c18 18 22 49-1 72l-7 7c-122 66-248 129-367 196-31 17-59 24-81 2-10-10-21-25-15-45 19-66 58-128 62-197 4-42-29-81-40-121-9-38-44-83-8-119 12-12 33-22 56-11 69 34 136 72 203 107 18 10 39 20 55 30 20 11 43 24 63 33 10 6 66 32 80 46z m-418-167l57 175c55 0 111 0 165 1 7 1 16 6 18 7 9 10 9 30 0 39-3 2-7 7-12 7-57 2-114 1-171 1l-58 174 380-202z"/>
<glyph glyph-name="menu-1" unicode="&#57381;" d="M204 256c0-15 5-27 15-38 10-10 22-15 37-15 15 0 27 5 37 15 10 11 15 23 15 38 0 15-5 27-15 37-10 10-22 15-37 15-15 0-27-5-37-15-10-10-15-22-15-37z m0-203c0-15 5-27 15-38 10-10 22-15 37-15 15 0 27 5 37 15 10 11 15 24 15 38 0 14-5 27-15 37-10 10-22 15-37 15-15 0-27-5-37-15-10-10-15-23-15-37z m15 443c-10-10-15-22-15-37 0-15 5-27 15-37 10-10 22-15 37-15 15 0 27 5 37 15 10 10 15 22 15 37 0 15-5 27-15 37-10 11-22 16-37 16-15 0-27-5-37-16z"/>
<glyph glyph-name="menu-2" unicode="&#57382;" d="M318 450c0 32-24 62-63 62-34 0-61-27-61-62 0-32 22-63 61-63 32 0 63 24 63 63z m-30 0c0-20-18-33-33-33-18 0-31 18-31 33 0 20 16 32 31 32 20 0 33-17 33-32z m30-193c0 31-24 62-63 62-34 0-61-28-61-62 0-32 22-64 61-64 32 0 63 24 63 64z m-30 0c0-20-18-33-33-33-18 0-31 18-31 33 0 18 16 31 31 31 20 0 33-16 33-31z m30-194c0 32-24 62-63 62-34 0-61-27-61-62 0-31 22-63 61-63 32 0 63 24 63 63z m-30 0c0-19-18-33-33-33-18 0-31 18-31 33 0 20 16 32 31 32 20 0 33-16 33-32z"/>
<glyph glyph-name="menu-3" unicode="&#57383;" d="M490 436c17 0 22-15 22-24 0-8-6-26-19-26l-475 0c-16 8-18 16-18 26 0 11 2 20 20 24z m0-155c17 0 22-15 22-24 0-8-6-26-19-26l-475 0c-16 7-18 16-18 26 0 11 2 20 20 24z m0-155c17 0 22-15 22-25 0-7-6-25-19-25l-475 0c-16 7-18 16-18 25 0 11 2 21 20 25z"/>
<glyph glyph-name="menu-4" unicode="&#57384;" d="M512 263c0 5-2 9-5 13l-24 26c-4 3-9 4-13 4-4 0-8-1-12-4l-119-123-53 55c-4 3-8 5-12 5-4 0-8-2-13-5l-24-26c-3-3-5-7-5-12 0-5 2-9 5-13l90-92c3-3 7-5 12-5 4 0 8 2 13 5l24 25 131 135c3 2 5 6 5 12z m-512-22l0-49 192 0 0 49z m0 92l0-48 312 0 0 48z m0 93l0-48 312 0 0 48z"/>
<glyph glyph-name="menu-5" unicode="&#57385;" d="M201 148l110 0 0-54-110 0z m311 270l0-54-512 0 0 54z m-421-134l330 0 0-56-330 0z"/>
<glyph glyph-name="menu-6" unicode="&#57386;" d="M502 512l0-512-492 0 0 512z m-41-43l-410 0 0-426 410 0z m-369-298l246 0 0-43-246 0z m328 42l-328 0 0 43 328 0z m0 86l-328 0 0 42 328 0z"/>
<glyph glyph-name="menu-7" unicode="&#57387;" d="M172 440c0 13-9 28-26 28-10 0-12 2-19-6-20-21-39-47-57-69-27 12-20 18-42 18-17 0-25-8-25-26 0-8-2-11 6-19 12-11 46-37 65-37 2 0 12 1 16 5 17 15 32 35 45 52 13 20 37 36 37 54z m315-27l-263 0c-21-6-22-15-22-28 0-14 1-23 24-28l261 0c14 0 25 16 25 29 0 11-7 27-25 27z m-317-114c0 15-12 30-28 30-3 0-11 0-15-4-23-23-41-48-61-70-16 7-24 18-39 18-18 0-26-15-26-30 0-7-3-7 4-16 2-3 54-41 67-41 3 0 15 6 15 6 3 2 5 7 7 8 17 24 76 85 76 99z m318-29l-265 0c-21-4-21-15-21-27 0-11-3-20 18-28l271 0c16 0 21 20 21 28 0 11-5 27-24 27z m-318-112c0 13-11 28-27 28-21 0-25-14-44-35-12-12-23-28-33-40-22 12-24 19-39 19-18 0-26-15-26-30 0-8-3-12 8-19 17-13 45-37 65-37 6 0 8-1 16 7 13 17 29 36 42 53 14 20 38 36 38 54z m319-31l-267 0c-20-4-20-15-20-27 0-13 1-23 21-28l266 0c14 0 23 16 23 28 0 12-5 23-23 27z"/>
<glyph glyph-name="menu-8" unicode="&#57388;" d="M171 256c0-11-4-20-11-28-8-8-17-11-28-11-11 0-20 3-28 11-8 8-11 17-11 28 0 11 3 20 11 28 8 7 17 11 28 11 11 0 20-4 28-11 7-8 11-17 11-28z m124 0c0-11-4-20-11-28-8-8-17-11-28-11-11 0-20 3-28 11-8 8-11 17-11 28 0 11 3 20 11 28 8 7 17 11 28 11 11 0 20-4 28-11 7-8 11-17 11-28z m124 0c0-11-4-20-11-28-8-8-17-11-28-11-11 0-20 3-28 11-8 8-11 17-11 28 0 11 3 20 11 28 8 7 17 11 28 11 11 0 20-4 28-11 7-8 11-17 11-28z m93 0c0-71-25-131-75-181-50-50-110-75-181-75-71 0-131 25-181 75-50 50-75 110-75 181 0 71 25 131 75 181 50 50 110 75 181 75 71 0 131-25 181-75 50-50 75-110 75-181z m-47 0c0 57-21 107-61 148-41 40-91 61-148 61-57 0-107-21-148-61-40-41-61-91-61-148 0-57 21-107 61-148 41-40 91-61 148-61 57 0 107 21 148 61 40 41 61 91 61 148z"/>
<glyph glyph-name="time-1" unicode="&#57389;" d="M213 192c-4 8-6 16-6 24 0 25 12 42 37 49l0 82c0 8 4 12 12 12 8 0 12-4 12-12l0-82c24-7 37-24 37-49 0-13-5-25-15-35-10-10-21-15-34-15-11 0-20 3-28 9l-42-39c-2-2-5-3-8-3-3 0-5 1-8 4-5 6-5 12 0 17z m17 24c0-7 3-12 8-18 5-5 11-8 18-8 6 0 13 3 18 8 5 6 8 11 8 18 0 7-3 13-8 19-5 5-11 7-18 7-8 0-14-2-19-7-5-6-7-12-7-19z m14 216l0 56-37 0c-4 0-6 1-9 4-2 3-3 5-3 8 0 8 4 12 12 12l98 0c8 0 12-4 12-12 0-3-2-5-4-8-2-3-5-4-8-4l-37 0 0-56c16-1 31-4 45-7 33-10 62-27 88-50l33 34c5 6 11 6 17 0 6-5 6-11 0-16l-34-35c35-41 53-88 53-142 0-60-21-110-63-152-42-43-93-64-151-64-59 0-110 21-151 64-42 42-63 92-63 152 0 48 15 92 44 131 29 38 67 65 113 78 13 3 28 6 45 7z m-39-30c-42-11-75-35-101-70-26-35-39-73-39-116 0-53 18-98 56-136 37-37 82-56 135-56 52 0 98 19 135 56 37 38 56 83 56 136 0 43-13 81-39 116-26 35-60 59-101 70-21 5-37 7-51 7-14 0-31-2-51-7z"/>
<glyph glyph-name="time-2" unicode="&#57390;" d="M84 428c-26-26-39-57-39-94l0-156c0-37 13-68 39-94 26-26 57-39 94-39l156 0c37 0 68 13 94 39 26 26 39 57 39 94l0 156c0 37-13 68-39 94-26 26-57 39-94 39l-156 0c-37 0-68-13-94-39z m267 84c44 0 83-16 114-47 31-31 47-70 47-114l0-190c0-44-16-83-47-114-31-32-70-47-114-47l-190 0c-44 0-83 15-114 47-32 31-47 70-47 114l0 190c0 44 15 83 47 114 31 31 70 47 114 47z m-95-136l0-135 90 0 0-45-135 0 0 180z"/>
<glyph glyph-name="time-3" unicode="&#57391;" d="M48 256c0 115 93 208 208 208 115 0 208-93 208-208 0-115-93-208-208-208-115 0-208 93-208 208z m-48 0c0-141 115-256 256-256 141 0 256 115 256 256 0 141-115 256-256 256-141 0-256-115-256-256z m278 147c0 12-17 16-23 16-9 0-17-2-22-16l0-152c0-7 70-75 78-81 5-6 8-6 14-6 12 0 23 8 23 23 0 2-1 9-3 11-21 24-44 46-67 69z"/>
<glyph glyph-name="time-4" unicode="&#57392;" d="M457 365c-46 103-138 147-216 147-135 0-241-99-241-237 0-24 6-62 13-81 2-6 5-11 7-18 15-44 84-114 149-128 10-2 27-8 30-8 11 0 18 10 18 20 0 7 1 9-5 14-9 7-19 7-26 9-8 2-16 5-24 8-33 10-91 57-108 105-10 28-14 51-14 78 0 111 83 199 198 199 72 0 156-43 189-141 5-14 1-39 25-39 8 0 20 7 20 20 0 11-13 48-15 52z m-200 40c0 11-13 18-21 18-7 0-16-3-19-14l0-111c-8-6-10-14-10-20 0-2 0-4-1-5-19-20-40-39-59-60-3-3-3-8-3-11 0-10 7-20 19-20 19 0 60 59 72 63 4 2 10 2 15 4 10 4 17 19 17 27 0 7-5 16-10 23z m255-270c0 70-57 135-133 135-59 0-127-38-136-120l0-31c0-2 4-25 9-37 25-59 82-82 126-82 71 0 134 59 134 135z m-40 0c0-51-44-95-94-95-55 0-95 41-95 95 0 57 42 94 95 94 53 0 94-45 94-94z m-95 28c-3 0-17 21-30 21-12 0-19-9-19-19 0-13 8-11 21-31-15-15-21-17-21-29 0-10 7-20 19-20 14 0 24 21 30 21 5 0 15-21 30-21 8 0 20 7 20 20 0 12-9 13-22 30 13 16 22 18 22 30 0 10-10 19-20 19-13 0-28-21-30-21z"/>
<glyph glyph-name="time-5" unicode="&#57393;" d="M512 257c0 129-103 229-231 229-97 0-199-56-229-192 0-1-3-5-5-5-8 0-12 15-28 15-12 0-19-9-19-20 0-16 49-59 58-67 8-7 10-6 15-6 16 0 48 40 68 59 3 3 5 12 5 14 0 11-10 20-20 20-13 0-21-14-27-14-2 0-4 3-4 5 0 3 6 24 10 35 36 84 114 116 176 116 103 0 190-84 190-189 0-103-84-190-190-190-29 0-70 10-96 26-8 6-17 11-23 17-14 11-21 18-30 18-10 0-19-6-19-19 0-27 71-62 76-64 15-6 31-12 47-14 14-3 42-5 45-5 128 0 231 103 231 231z m-211 104c0 11-10 20-20 20-11 0-19-4-21-18l0-142c0-2 2-8 5-11 7-7 52-60 69-60 10 0 20 10 20 20 0 18-47 52-53 67z"/>
<glyph glyph-name="time-6" unicode="&#57394;" d="M131 481l-15 29c-38-18-92-63-116-105l27-18c26 39 67 77 104 94z m381-76c-23 41-80 90-116 105l-15-29c36-17 77-55 104-94z m-21-168c0 129-103 234-236 234-104 0-217-73-234-214l0-41c0-2 4-29 8-44 35-117 138-170 226-170 129 0 236 106 236 235z m-34-1c0-109-91-199-200-199-77 0-167 43-196 151-3 12-6 36-6 38l0 22c9 125 111 188 200 188 111 0 202-89 202-200z m-183 119l-34 0 0-110-54-43 22-25c20 15 42 32 61 49 2 2 3 6 5 9z"/>
<glyph glyph-name="document-1" unicode="&#57395;" d="M470 103c0-29-10-53-31-73-21-20-45-30-74-30-40 0-70 16-89 50l-223 0c-7 0-11 4-11 11l0 404c0 7 4 11 11 11l54 0 0 25c0 7 3 11 11 11 7 0 11-4 11-11l0-25 53 0 0 25c0 7 4 11 11 11 7 0 11-4 11-11l0-25 53 0 0 25c0 7 3 11 11 11 7 0 11-4 11-11l0-25 54 0 0 25c0 7 3 11 11 11 7 0 11-4 11-11l0-25 54 0c7 0 11-4 11-11l0-274c33-21 50-50 50-88z m-205-32c0 2-1 5-2 7l0 1c-1 1-1 2-1 5 0 3 0 4-1 5l0 3c0 1-1 3-1 5 0 3 0 4 0 6 0 29 10 53 31 73 20 20 45 30 74 30 5 0 9 0 11-1l3 0c2 0 6-1 11-2 1 0 2 0 4 0 2-1 2-1 3-2l0 253-42 0 0-26c0-8-4-11-11-11-8 0-11 3-11 11l0 26-54 0 0-26c0-8-4-11-11-11-8 0-11 3-11 11l0 26-53 0 0-26c0-8-4-11-11-11-7 0-11 3-11 11l0 26-53 0 0-26c0-8-4-11-11-11-8 0-11 3-11 11l0 26-43 0 0-383z m159-26c16 16 24 35 24 58 0 33-15 57-44 72-13 6-26 9-39 9-23 0-42-8-58-24-16-16-25-35-25-57 0-14 3-26 9-37 17-29 41-44 74-44 23 0 43 8 59 23z m-6 87c4-5 4-10 0-16l-52-50c-2-2-5-3-8-3-4 0-6 1-8 3l-30 30c-5 5-5 10 0 15 4 5 10 5 15 0l23-22 43 43c6 4 12 4 17 0z m-312 227c0 6 3 10 11 10l206 0c7 0 11-4 11-10 0-7-4-11-11-11l-206 0c-8 0-11 4-11 11z m0-76c0 7 3 11 11 11l206 0c7 0 11-4 11-11 0-7-4-11-11-11l-206 0c-8 0-11 4-11 11z m115-75c0-8-4-11-11-11l-93 0c-8 0-11 3-11 11 0 7 3 11 11 11l93 0c7 0 11-4 11-11z"/>
<glyph glyph-name="document-2" unicode="&#57396;" d="M498 318l0-318-484 0 0 318 73 59 0 74 91 0 74 61 77-61 99 0 0-78z m-70 21l0-56 35 28z m-208 112l66 0-33 26z m-106-27l0-164 145-115 141 115 0 164z m-27-82l-38-30 38-30z m384-315l0 256-211-172-219 172 0-256z m-131 314l-165 0 0 26 165 0z m0-67l-165 0 0 26 165 0z"/>
<glyph glyph-name="document-3" unicode="&#57397;" d="M365 493c-5 4-12 8-22 13-9 4-17 6-24 6l-251 0c-7 0-13-3-18-8-5-5-8-11-8-19l0-458c0-8 3-15 8-19 5-5 11-8 18-8l376 0c6 0 13 3 18 8 5 4 8 11 8 19l0 330c0 9-2 18-5 25-4 9-8 16-14 21z m-26-26l87-90c3-1 5-5 7-11l-106 0 0 107c6-2 10-4 12-6z m-262-430l0 438 215 0 0-118c0-9 3-16 8-20 5-5 11-8 19-8l116 0 0-292z"/>
<glyph glyph-name="document-4" unicode="&#57398;" d="M381 167c-3 3-5 4-7 4l-236 0c-2 0-4-1-7-4-2-1-4-3-4-7l0-22c0-2 2-5 4-7 3-3 5-4 7-4l236 0c2 0 4 1 7 4 3 2 4 5 4 7l0 22c0 4-1 6-4 7z m0 85c-2 3-4 4-7 4l-236 0c-3 0-5-1-7-4-2 0-4-3-4-7l0-21c0-3 2-5 4-8 2-2 4-3 7-3l236 0c3 0 5 1 7 3 3 3 4 5 4 8l0 21c0 4-1 7-4 7z m-295 218l170 0 0-139c0-9 3-16 9-22 6-7 13-10 23-10l138 0 0-257-340 0z m214-2c8-4 11-6 12-9l106-104c2-3 4-7 7-14l-125 0z m163-108c-5 11-11 20-17 26l-104 104c-6 6-14 11-23 16-12 4-22 6-31 6l-213 0c-10 0-18-3-24-9-6-7-9-15-9-23l0-448c0-8 3-16 9-23 6-6 14-9 24-9l362 0c10 0 18 3 24 9 6 7 9 15 9 23l0 299c0 10-3 20-7 29z"/>
<glyph glyph-name="document-5" unicode="&#57399;" d="M278 512l-138 0c-4-2-11-2-13-2-39-4-85-56-85-93l0-322c0-42 50-92 95-95l236 0c4 0 8 3 11 3 35 4 82 45 86 93l0 227c0 4-1 7-4 8-51 54-103 106-154 155-11 10-22 28-34 26z m-23-43l0-74c2-50 58-97 97-97l75 0 0-198c-1-25-32-57-58-57l-228 0c-27 1-56 32-56 56l0 314c0 27 35 59 59 56z m141-127l-40 0c-27 1-56 32-56 56l0 40z m-226-23c-11 0-20-9-20-20 0-11 9-20 20-20l40 0c11 0 21 9 21 20 0 11-10 20-21 20z m0-171c-11 0-20-9-20-20 0-11 9-20 20-20l172 0c11 0 20 9 20 20 0 11-9 20-20 20z m0 85c-11 0-20-9-20-20 0-11 9-20 20-20l172 0c11 0 20 9 20 20 0 11-9 20-20 20z"/>
<glyph glyph-name="document-6" unicode="&#57400;" d="M434 512l-292 0c-6-1-15-2-21-8-28-24-56-52-79-79-6-5-6-13-8-19l0-363c0-23 33-43 50-43l343 0c20 0 49 20 51 44l0 426c0 19-29 42-44 42z m-6-34c5 0 16-8 16-12l0-418c-1-1-7-13-13-13l-351 0c-3 2-12 10-12 13l0 351c1 2 1 7 4 9 25 25 49 57 76 70z m-200-124c0 3-14 16-22 23l-38-35c-6 6-13 13-20 19-8-8-21-20-21-23 0-3 19-22 31-32 3-3 8-5 10-5 4 0 9 2 13 6 16 14 47 45 47 47z m147 5l-118 0 0-33 118 0z m-188-103l-33 0 0-33 33 0z m188 0l-118 0 0-33 118 0z m-188-103l-33 0 0-32 33 0z m188 0l-118 0 0-32 118 0z"/>
<glyph glyph-name="document-7" unicode="&#57401;" d="M297 512l-181 0c-37 0-78-44-78-80l0-352c0-32 35-76 76-80l284 0c4 0 9 4 13 4 30 6 61 45 63 74l0 259c0 4-2 8-5 10-43 45-88 89-132 133-10 10-20 21-29 28-4 3-7 4-11 4z m-22-39l0-76c0-31 36-75 69-80 2 0 4-2 7-2l83 0 0-222c2-29-26-54-49-54l-259 0c-3 2-6 3-10 3-20 1-37 26-37 41l0 346c-1 15 18 44 38 42 4 0 8 0 11 2z m131-118l-42 0c-3 2-6 3-10 3-20 1-37 26-37 40l0 46z m-69-149c0 53-41 96-97 96-53 0-97-43-97-96 0-52 44-96 97-96 30 0 46 15 53 15 6 0 37-46 55-46 8 0 19 9 19 20 0 17-45 48-45 54 0 9 15 20 15 53z m-40 0c0-32-25-57-56-57-32 0-57 26-57 57 0 32 24 56 57 56 35 0 56-28 56-56z"/>
<glyph glyph-name="document-8" unicode="&#57402;" d="M152 474c-10 27-31 38-52 38-23 0-47-15-52-47l0-417c0-17 22-47 47-48l318 0c8 0 12 11 13 16l0 46 25 0c5 0 10 10 13 13l0 387c0 4-9 10-13 12z m-29-9l0-351c-7 3-19 5-22 5-2 0-15-3-23-6l0 350c3 12 12 19 22 19 6 0 23-5 23-17z m311-21l0-352-280 0 0 352z m-298-383l259 0 0-31-297 0c-7 0-20 12-20 20l0 18c1 12 15 20 23 20 24 0 20-27 35-27z m138 342l-73 0c-6 0-13-5-13-11l0-67c0-5 8-9 11-11l77 0c4 0 10 10 12 12l0 66c0 4-10 11-14 11z m-16-30l0-29-40 0 0 29z m128 30l-56 0c-10-1-13-7-13-14 0-4 2-14 11-15l60 0c7 0 12 9 12 15 0 5-4 16-14 14z m0-60l-56 0c-10-1-13-7-13-14 0-4 2-14 11-15l60 0c7 0 12 9 12 15 0 5-4 16-14 14z m0-60l-185 0c-10-1-13-7-13-14 0-6 2-11 11-16l189 0c7 0 12 10 12 16 0 5-4 16-14 14z m0-61l-185 0c-10-1-13-7-13-14 0-6 2-11 11-15l189 0c7 0 12 9 12 15 0 5-4 16-14 14z m0-60l-185 0c-10-1-13-7-13-14 0-6 2-11 11-15l189 0c7 0 12 9 12 15 0 5-4 16-14 14z"/>
</font>
</defs>
</svg>
