<?xml version="1.0" encoding="UTF-8"?>
<!DOCTYPE svg PUBLIC "-//W3C//DTD SVG 1.1//EN" "http://www.w3.org/Graphics/SVG/1.1/DTD/svg11.dtd">
<!-- Creator: CorelDRAW X5 -->
<svg xmlns="http://www.w3.org/2000/svg" xml:space="preserve" width="673px" height="142px" style="shape-rendering:geometricPrecision; text-rendering:geometricPrecision; image-rendering:optimizeQuality; fill-rule:evenodd; clip-rule:evenodd"
viewBox="0 0 6730 1417"
 xmlns:xlink="http://www.w3.org/1999/xlink">
 <defs>
  <style type="text/css">
   <![CDATA[
    .fil6 {fill:#0082C6}
    .fil5 {fill:#00ACE6}
    .fil3 {fill:#A9BEC9}
    .fil1 {fill:#0082C6;fill-rule:nonzero}
    .fil0 {fill:#324B57;fill-rule:nonzero}
    .fil2 {fill:url(#id0)}
    .fil4 {fill:url(#id1)}
   ]]>
  </style>
  <linearGradient id="id0" gradientUnits="userSpaceOnUse" x1="794.329" y1="216.824" x2="847.767" y2="616.114">
   <stop offset="0" style="stop-color:#222F36"/>
   <stop offset="1" style="stop-color:#889FAC"/>
  </linearGradient>
  <linearGradient id="id1" gradientUnits="userSpaceOnUse" x1="1290.59" y1="813.964" x2="986.287" y2="626.067">
   <stop offset="0" style="stop-color:#0077BD"/>
   <stop offset="1" style="stop-color:#00BBF1"/>
  </linearGradient>
 </defs>
 <g id="Layer_x0020_1">
  <metadata id="CorelCorpID_0Corel-Layer"/>
  <path class="fil0" d="M1829 760c0,73 21,130 64,173 42,43 99,64 171,64 71,0 128,-21 170,-64 42,-43 64,-101 64,-173l0 -397 59 0 0 394c0,91 -26,163 -79,217 -53,53 -124,80 -214,80 -89,0 -160,-27 -213,-80 -53,-53 -79,-126 -79,-217l0 -394 58 0 0 397zm712 -351l0 270 108 0c61,0 106,-11 135,-33 29,-22 44,-57 44,-103 0,-44 -14,-77 -43,-99 -28,-23 -70,-34 -125,-34l-118 0zm-57 -45l172 0c77,0 135,15 174,46 39,31 59,76 59,136 0,55 -19,99 -57,132 -38,33 -88,49 -152,49l-140 0 0 316 -57 0 0 -678zm822 97c-29,-19 -57,-33 -84,-42 -26,-9 -53,-14 -79,-14 -43,0 -78,12 -105,36 -27,24 -41,54 -41,91 0,30 9,54 26,73 18,19 55,40 113,63 3,1 8,3 15,6 65,25 109,50 131,74 15,16 27,34 35,54 8,20 12,42 12,65 0,54 -20,98 -59,133 -39,35 -89,52 -150,52 -31,0 -61,-5 -91,-15 -30,-10 -61,-25 -91,-45l0 -66c33,25 65,43 95,55 30,12 59,18 87,18 46,0 83,-12 110,-36 27,-24 40,-57 40,-99 0,-31 -9,-56 -28,-75 -18,-20 -60,-42 -126,-69 -68,-27 -114,-54 -139,-81 -25,-27 -37,-62 -37,-105 0,-53 19,-96 57,-129 38,-33 87,-50 148,-50 28,0 55,4 81,11 26,7 53,19 79,34l0 61zm112 581l0 -678 61 0 0 678 -61 0zm430 -629l-171 0 0 581 171 0c47,0 87,-4 120,-11 33,-7 62,-19 87,-35 39,-25 70,-60 93,-103 22,-43 34,-90 34,-142 0,-51 -11,-99 -34,-142 -22,-43 -53,-78 -93,-103 -24,-16 -53,-27 -87,-35 -33,-7 -74,-11 -120,-11zm14 -49c54,0 100,5 138,15 38,10 72,25 102,47 45,32 79,72 104,120 25,49 37,101 37,157 0,56 -12,108 -37,156 -25,49 -59,89 -104,120 -30,22 -65,38 -103,47 -38,10 -84,15 -137,15l-245 0 0 -678 245 0zm480 678l0 -678 383 0 0 44 -327 0 0 269 316 0 0 44 -316 0 0 276 335 0 0 45 -392 0z"/>
  <path class="fil1" d="M6205 997l0 -151c53,32 98,54 135,66 37,13 72,19 107,19 35,0 61,-5 79,-15 18,-10 27,-25 27,-45 0,-16 -6,-29 -17,-39 -11,-10 -37,-22 -78,-35 -101,-34 -170,-68 -208,-104 -38,-35 -57,-81 -57,-135 0,-58 25,-105 74,-141 49,-36 114,-54 193,-54 40,0 80,5 121,14 40,9 80,23 120,41l0 139c-47,-23 -90,-40 -128,-51 -38,-11 -72,-17 -103,-17 -34,0 -59,5 -77,14 -18,9 -27,23 -27,40 0,14 8,27 24,40 16,12 40,24 72,36 7,2 17,6 31,11 68,24 116,44 145,62 31,18 54,41 70,70 16,28 23,62 23,100 0,63 -25,112 -74,148 -49,36 -118,54 -206,54 -44,0 -86,-5 -127,-17 -41,-11 -80,-27 -118,-49z"/>
  <polygon class="fil1" points="5359,1041 5359,363 5515,363 5742,636 5970,363 6127,363 6127,1041 5952,1041 5952,621 5742,869 5534,621 5534,1041 "/>
  <polygon class="fil1" points="4815,1041 4815,363 4992,363 4992,910 5297,910 5297,1041 "/>
  <g id="_224570552">
   <polygon class="fil2" points="846,607 137,373 1394,0 "/>
   <polygon class="fil3" points="787,673 0,414 98,385 727,592 829,626 "/>
   <polygon class="fil3" points="222,323 137,296 1104,14 1044,80 "/>
   <path class="fil4" d="M860 630l9 32 54 0 51 0 0 51 0 80 35 0 51 0 0 51 0 159 0 43 23 0 0 51 0 70 0 51 -51 0 -11 0 54 198 342 -1394 -557 607zm73 266l16 57 10 0 0 -57 -26 0z"/>
   <rect class="fil5" x="839" y="713" width="84" height="84"/>
   <rect class="fil6" x="850" y="845" width="159" height="159"/>
   <rect class="fil6" x="735" y="1067" width="109" height="109"/>
   <rect class="fil5" x="598" y="1110" width="63" height="63"/>
   <rect class="fil6" x="641" y="1153" width="40" height="40"/>
   <rect class="fil5" x="506" y="1169" width="42" height="42"/>
   <rect class="fil6" x="875" y="1200" width="48" height="48"/>
   <rect class="fil5" x="769" y="799" width="48" height="48"/>
   <rect class="fil5" x="820" y="974" width="61" height="61"/>
   <rect class="fil6" x="694" y="1230" width="55" height="55"/>
   <rect class="fil5" x="684" y="909" width="97" height="97"/>
   <rect class="fil5" x="666" y="890" width="36" height="36"/>
   <rect class="fil5" x="580" y="1007" width="36" height="36"/>
   <rect class="fil6" x="888" y="1076" width="36" height="36"/>
   <rect class="fil6" x="961" y="1098" width="70" height="70"/>
   <rect class="fil6" x="515" y="1299" width="36" height="36"/>
  </g>
 </g>
</svg>
